<?xml version="1.0" encoding="utf-8"?>
<svg xmlns="http://www.w3.org/2000/svg" viewBox="0 0 50 50" width="500" height="500">
  <path d="M23 2C21.277344 2 19.699219 2.609375 18.625 3.84375C17.71875 4.875 17.191406 6.289063 17.046875 8L8 8C6.34375 8 5 9.34375 5 11L5 44C5 45.65625 6.34375 47 8 47L42 47C43.65625 47 45 45.65625 45 44L45 11C45 9.34375 43.65625 8 42 8L41 8C39.582031 8 36.230469 6.589844 32.828125 5.085938C29.425781 3.582031 25.898438 2 23 2 Z M 23 4C25.101563 4 28.636719 5.417969 32.019531 6.914063C32.84375 7.277344 33.652344 7.648438 34.441406 8L19.0625 8C19.199219 6.714844 19.585938 5.777344 20.125 5.15625C20.800781 4.390625 21.722656 4 23 4 Z M 7 14L43 14L43 41L7 41 Z M 15 15L15 16C15 17.105469 15.894531 18 17 18L17 19L19 19L19 18C20.105469 18 21 17.105469 21 16L21 15 Z M 25 19.519531L16.621094 21.953125L25 24.933594L33.328125 21.9375 Z M 35 23.289063L26 26.691406L26 37.71875L35 34.71875 Z M 15 23.324219L15 34.71875L24 37.71875L24 26.691406Z" />
</svg>