<?xml version="1.0" encoding="utf-8"?>
<svg xmlns="http://www.w3.org/2000/svg" viewBox="0 0 30 30" width="480" height="480">
  <path d="M21.5 1C21.224 1 21 1.224 21 1.5C21 1.776 21.224 2 21.5 2C21.603 2 23.408203 2.028 23.408203 4.5C23.408203 5.932671 22.840986 6.9597083 22.568359 8L6 8 A 1.0001 1.0001 0 0 0 5.6367188 9.9375 A 1.0001 1.0001 0 0 0 5.6425781 9.9394531L9 11.494141L9 26.966797C9 27.536797 9.4632031 28 10.033203 28C10.577203 28 11.028453 27.578156 11.064453 27.035156L11.501953 19.464844C11.519953 19.203844 11.737 19 12 19C12.263 19 12.480047 19.204797 12.498047 19.466797L12.935547 27.035156C12.971547 27.577156 13.422797 28 13.966797 28C14.536797 28 15 27.536797 15 26.966797L15 10.65625L22.597656 10.101562C22.879135 11.107814 23.408203 12.113624 23.408203 13.5C23.408203 15.972 21.603 16 21.5 16C21.224 16 21 16.224 21 16.5C21 16.776 21.224 17 21.5 17C22.711 17 25 16.269 25 13.5C25 12.389292 24.44732 11.056909 24.164062 9.9882812 A 1.0001 1.0001 0 0 0 24.164062 8.0117188C24.44732 6.943091 25 5.6107085 25 4.5C25 1.731 22.711 1 21.5 1 z M 12.5 2 A 2.5 2.5 0 0 0 10 4.5 A 2.5 2.5 0 0 0 12.5 7 A 2.5 2.5 0 0 0 15 4.5 A 2.5 2.5 0 0 0 12.5 2 z" />
</svg>