<?xml version="1.0" encoding="utf-8"?>
<svg xmlns="http://www.w3.org/2000/svg" viewBox="0 0 50 50" width="500" height="500">
  <path d="M3.5 2C3.101563 2.023438 2.699219 2.199219 2.398438 2.5C2.101563 2.800781 2 3.199219 2 3.601563C2 4.101563 2.199219 4.5 2.5 4.699219C3.011719 5.210938 3.554688 5.609375 4.117188 5.929688L7.945313 33.65625L2.300781 39.300781C2 39.601563 1.898438 40 2.101563 40.300781C2.199219 40.699219 2.5 40.898438 2.898438 41L7 41.699219L14.699219 34L9.890625 33.125L6.25 6.734375C8.429688 7.222656 10.75 6.886719 12.800781 6.699219C19.601563 6.097656 26.800781 10 31.699219 13.800781C32.347656 14.304688 33.164063 14.578125 33.96875 14.59375L14.640625 33.921875L16.058594 35.335938L35.402344 15.992188C35.410156 16.808594 35.6875 17.640625 36.199219 18.300781C40 23.199219 43.902344 30.398438 43.300781 37.199219C43.113281 39.25 42.777344 41.570313 43.265625 43.75L16.886719 40.113281L16.097656 35.300781L8.398438 43L9 47.199219C9.101563 47.597656 9.300781 47.898438 9.699219 48L10 48C10.300781 48 10.5 47.898438 10.699219 47.699219L16.34375 42.058594L44.074219 45.878906C44.390625 46.445313 44.789063 46.988281 45.300781 47.5C45.601563 47.800781 46.101563 48 46.5 48C46.898438 48 47.300781 47.898438 47.597656 47.597656C48.097656 47 48.199219 46 47.597656 45.402344C45.699219 43.5 46.199219 40.699219 46.5 37.597656C47.300781 28.898438 46.898438 24.199219 44.199219 18.402344C43.070313 15.953125 40.875 12.800781 38.535156 12.855469L41.84375 9.546875C42.167969 9.722656 42.515625 9.84375 42.902344 9.898438L43.097656 9.898438C43.699219 9.898438 44.300781 9.699219 44.699219 9.300781C45.300781 8.699219 46.902344 5.5 47.902344 3.601563C48.101563 3.101563 48 2.601563 47.699219 2.300781C47.398438 2 46.898438 1.898438 46.5 2.101563C44.601563 3 41.402344 4.699219 40.800781 5.300781C40.300781 5.800781 40.097656 6.5 40.199219 7.199219C40.246094 7.480469 40.34375 7.789063 40.480469 8.085938L37.144531 11.417969C37.160156 9.09375 34.03125 6.921875 31.597656 5.800781C25.800781 3.101563 21.101563 2.699219 12.402344 3.5C9.300781 3.800781 6.5 4.300781 4.601563 2.398438C4.300781 2.101563 3.898438 1.976563 3.5 2Z" />
</svg>