<?xml version="1.0" encoding="utf-8"?>
<svg xmlns="http://www.w3.org/2000/svg" viewBox="0 0 50 50" width="500" height="500">
  <path d="M34.8125 0.96875C34.597656 1.011719 34.402344 1.136719 34.25 1.3125L32.75 3.09375L31.59375 2.0625C31.332031 1.835938 30.957031 1.773438 30.625 1.875C30.300781 1.976563 29.316406 2.46875 27.1875 4.90625C24.945313 7.472656 24.609375 8.871094 24.5625 9.125C24.5 9.457031 24.628906 9.796875 24.875 10.03125C24.988281 10.136719 27.644531 12.65625 29.40625 14.1875C31.105469 15.664063 35.339844 20.351563 36.25 22.03125C37.234375 23.84375 38.75 26.363281 38.8125 26.46875C38.996094 26.765625 39.339844 26.96875 39.6875 26.96875C39.722656 26.96875 39.746094 26.972656 39.78125 26.96875C40.050781 26.9375 42.519531 26.554688 46.09375 23C49.753906 19.359375 49.992188 16.375 50 16.25C50.027344 15.820313 49.773438 15.410156 49.375 15.25C49.335938 15.234375 45.542969 13.683594 43.4375 12.15625C42.609375 11.554688 41.59375 10.742188 40.5625 9.875L42.125 8C42.441406 7.617188 42.425781 7.058594 42.09375 6.6875C42.046875 6.636719 40.964844 5.4375 38.84375 3.59375C36.679688 1.714844 35.515625 1.085938 35.46875 1.0625C35.261719 0.957031 35.027344 0.925781 34.8125 0.96875 Z M 24.5 12.4375C23.929688 13.109375 23.605469 13.957031 23.21875 15.0625C22.511719 17.074219 21.460938 20.121094 17.90625 24.1875C16.96875 25.261719 15.625 26.269531 14.0625 27.4375C11.882813 29.070313 9.382813 30.921875 6.96875 33.6875C2.246094 39.09375 0.375 43.375 0.125 44.21875C-0.210938 45.363281 0.832031 46.976563 2.71875 48.25C4.957031 49.761719 7.667969 49.808594 7.78125 49.8125C7.808594 49.8125 7.847656 49.816406 7.875 49.8125C8 49.800781 8.664063 49.71875 9.21875 49.1875C9.332031 49.078125 10.324219 48.089844 10.5 47.25C10.515625 47.175781 10.550781 47.027344 10.5625 46.78125C10.605469 45.722656 10.738281 42.496094 13.21875 39.65625C14.800781 37.84375 17.113281 36.105469 19.5625 34.28125C21.726563 32.671875 23.949219 31.007813 25.71875 29.21875C28.019531 26.894531 31.019531 23.3125 32.96875 20.90625C31.4375 19.050781 29.203125 16.683594 28.09375 15.71875C26.949219 14.726563 25.472656 13.34375 24.5 12.4375Z" />
</svg>