<?xml version="1.0" encoding="utf-8"?>
<svg xmlns="http://www.w3.org/2000/svg" viewBox="0 0 50 50" width="500" height="500">
  <path d="M5.617188 3L6.0625 3.445313C5.445313 4.515625 4.550781 5.40625 3.476563 6.023438L3 5.546875L3 8.429688C3.015625 8.425781 3.03125 8.421875 3.046875 8.414063L4.585938 9.953125L10 9.953125L10 4.546875L8.460938 3.007813C8.460938 3.003906 8.460938 3.003906 8.460938 3 Z M 12.671875 3C12.441406 3.945313 12.175781 4.398438 12.175781 4.398438L11.828125 4.910156L12.125 5.453125C12.203125 5.59375 13.980469 8.867188 12.253906 12.21875C8.914063 14.03125 5.648438 12.167969 5.507813 12.089844L4.96875 11.78125L4.445313 12.113281C4.441406 12.117188 3.976563 12.394531 3 12.625L3 14.675781C3.925781 14.496094 4.589844 14.261719 5.007813 14.074219C5.765625 14.425781 7.292969 15.003906 9.148438 15.003906C9.789063 15.003906 10.472656 14.929688 11.171875 14.761719C11.070313 15.160156 11 15.570313 11 16C11 16.425781 11.070313 16.835938 11.171875 17.230469C8.441406 16.597656 6.035156 17.429688 5.015625 17.878906C4.601563 17.691406 3.933594 17.453125 3 17.269531L3 19.316406C3.972656 19.550781 4.433594 19.824219 4.4375 19.824219L4.945313 20.171875L5.488281 19.875C5.628906 19.792969 8.90625 18.023438 12.261719 19.738281C13.976563 23.09375 12.203125 26.371094 12.128906 26.511719L11.84375 27.046875L12.167969 27.550781C12.175781 27.566406 13 28.890625 13 32C13 35.109375 12.175781 36.4375 12.175781 36.4375L11.828125 36.949219L12.125 37.488281C12.203125 37.628906 13.980469 40.914063 12.253906 44.273438C8.914063 46.082031 5.648438 44.21875 5.511719 44.140625L4.96875 43.835938L4.445313 44.167969C4.4375 44.171875 3.976563 44.449219 3 44.683594L3 46.734375C3.925781 46.550781 4.589844 46.316406 5.007813 46.125C5.765625 46.480469 7.144531 47 9 47C10.335938 47 11.992188 46.761719 13.511719 45.859375L13.738281 45.722656L13.871094 45.488281C15.902344 41.875 14.695313 38.316406 14.121094 37.015625C14.429688 36.335938 14.878906 35 14.980469 32.863281C14.808594 31.628906 14.730469 30.386719 14.765625 29.195313C14.582031 28.15625 14.320313 27.425781 14.121094 26.980469C14.570313 25.964844 15.402344 23.558594 14.769531 20.828125C15.164063 20.929688 15.574219 21 16 21C16.285156 21 16.730469 20.925781 17 20.875L17 45C17 46.101563 17.898438 47 19 47L45 47C46.101563 47 47 46.101563 47 45L47 19C47 17.898438 46.101563 17 45 17L20.878906 17C20.917969 16.808594 20.964844 16.550781 20.984375 16.375C20.992188 16.253906 21 16.128906 21 16C21 15.550781 20.921875 15.125 20.8125 14.710938C23.550781 15.351563 25.964844 14.515625 26.984375 14.066406C27.753906 14.417969 29.351563 14.945313 32 14.945313C34.632813 14.945313 36.230469 14.421875 37.003906 14.074219C37.765625 14.425781 39.292969 15.007813 41.148438 15.007813C42.484375 15.007813 43.992188 14.707031 45.511719 13.808594L45.738281 13.671875L45.871094 13.4375C46.742188 11.890625 47.011719 10.355469 47 9C46.980469 7.195313 46.449219 5.722656 46.121094 4.980469C46.308594 4.570313 46.542969 3.914063 46.722656 3L44.671875 3C44.441406 3.945313 44.175781 4.398438 44.175781 4.398438L43.828125 4.910156L44.125 5.453125C44.203125 5.59375 45.980469 8.867188 44.253906 12.21875C40.914063 14.03125 37.648438 12.167969 37.511719 12.089844L36.96875 11.78125L36.449219 12.113281C36.433594 12.125 35.109375 12.949219 32 12.949219C28.886719 12.949219 27.5625 12.125 27.5625 12.125L27.050781 11.773438L26.511719 12.078125C26.476563 12.097656 23.125 13.9375 19.734375 12.210938C18.023438 8.863281 19.792969 5.59375 19.871094 5.457031L20.15625 4.921875L19.828125 4.414063C19.828125 4.402344 19.558594 3.949219 19.328125 3L17.277344 3C17.457031 3.914063 17.691406 4.570313 17.878906 4.980469C17.425781 6.003906 16.585938 8.429688 17.242188 11.175781C16.84375 11.074219 16.433594 11 16 11C15.566406 11 15.15625 11.074219 14.757813 11.175781C15.414063 8.429688 14.574219 6.003906 14.121094 4.980469C14.308594 4.570313 14.542969 3.914063 14.722656 3 Z M 23.535156 3C23.539063 3.003906 23.539063 3.003906 23.542969 3.007813L22 4.546875L22 9.953125L27.414063 9.953125L28.953125 8.414063C29.90625 8.757813 30.929688 8.957031 32 8.957031C33.070313 8.957031 34.09375 8.761719 35.046875 8.414063L36.589844 9.953125L42 9.953125L42 4.546875L40.457031 3.007813C40.460938 3.003906 40.460938 3.003906 40.464844 3L37.617188 3L38.0625 3.445313C37.445313 4.515625 36.550781 5.410156 35.480469 6.023438L33.414063 3.964844L34.382813 3L29.617188 3L30.582031 3.964844L28.519531 6.023438C27.445313 5.410156 26.554688 4.515625 25.9375 3.445313L26.382813 3 Z M 7.519531 4.898438L8 5.375L8 7.953125L5.414063 7.953125L4.9375 7.476563C5.960938 6.800781 6.84375 5.921875 7.519531 4.898438 Z M 24.480469 4.898438C25.15625 5.921875 26.035156 6.800781 27.0625 7.476563L26.585938 7.953125L24 7.953125L24 5.375 Z M 39.519531 4.898438L40 5.375L40 7.953125L37.414063 7.953125L36.9375 7.476563C37.960938 6.800781 38.84375 5.921875 39.519531 4.898438 Z M 32 5.375L33.433594 6.808594C32.96875 6.90625 32.492188 6.957031 32 6.957031C31.507813 6.957031 31.03125 6.90625 30.566406 6.808594 Z M 16 13C17.652344 13 19 14.347656 19 16C19 16.351563 18.929688 16.6875 18.816406 17L19 17C17.898438 17 17 17.898438 17 19L17 18.816406C16.6875 18.929688 16.351563 19 16 19C14.347656 19 13 17.652344 13 16C13 14.347656 14.347656 13 16 13 Z M 4.585938 22L3.046875 23.542969C3.03125 23.535156 3.015625 23.535156 3 23.527344L3 26.414063L3.476563 25.9375C4.550781 26.554688 5.445313 27.449219 6.0625 28.519531L4 30.585938L3 29.585938L3 34.414063L4 33.414063L6.0625 35.480469C5.445313 36.550781 4.550781 37.445313 3.476563 38.0625L3 37.585938L3 40.472656C3.015625 40.46875 3.03125 40.464844 3.046875 40.457031L4.585938 42L10 42L10 36.585938L8.460938 35.046875C8.804688 34.09375 9 33.070313 9 32C9 30.929688 8.804688 29.90625 8.460938 28.953125L10 27.414063L10 22 Z M 29 22L35 22C36.101563 22 37 22.898438 37 24L36.96875 24.242188C36.960938 24.28125 36 28.175781 36 32C36 35.832031 36.960938 39.71875 36.96875 39.757813L37 40C37 41.101563 36.101563 42 35 42L29 42C27.898438 42 27 41.101563 27 40L27.03125 39.757813C27.039063 39.71875 28 35.824219 28 32C28 28.167969 27.039063 24.28125 27.03125 24.242188L27 24C27 22.898438 27.898438 22 29 22 Z M 5.414063 24L8 24L8 26.585938L7.519531 27.066406C6.84375 26.039063 5.960938 25.15625 4.933594 24.480469 Z M 29.027344 24C29.246094 24.945313 30 28.441406 30 32C30 35.558594 29.246094 39.054688 29.027344 40L34.96875 40C34.75 39.054688 34 35.558594 34 32C34 28.441406 34.753906 24.945313 34.972656 24 Z M 6.851563 30.5625C6.949219 31.027344 7 31.507813 7 32C7 32.492188 6.949219 32.972656 6.851563 33.4375L5.414063 32 Z M 7.519531 36.933594L8 37.414063L8 40L5.414063 40L4.933594 39.519531C5.960938 38.84375 6.84375 37.960938 7.519531 36.933594Z" />
</svg>