<?xml version="1.0" encoding="utf-8"?>
<svg xmlns="http://www.w3.org/2000/svg" viewBox="0 0 50 50" width="500" height="500">
  <path d="M22.6875 12.125C21.757813 12.117188 20.683594 12.421875 19.46875 13.15625C19.136719 13.332031 18.929688 13.679688 18.933594 14.054688C18.9375 14.429688 19.152344 14.769531 19.492188 14.9375C19.828125 15.105469 20.230469 15.066406 20.53125 14.84375C21.53125 14.242188 22.171875 14.121094 22.65625 14.125C23.140625 14.128906 23.523438 14.28125 24 14.53125C24.476563 14.78125 25.015625 15.132813 25.78125 15.3125C26.546875 15.492188 27.503906 15.386719 28.46875 14.875C28.828125 14.734375 29.078125 14.402344 29.105469 14.015625C29.132813 13.628906 28.9375 13.261719 28.601563 13.070313C28.261719 12.882813 27.847656 12.902344 27.53125 13.125C26.890625 13.460938 26.59375 13.453125 26.25 13.375C25.90625 13.296875 25.472656 13.046875 24.90625 12.75C24.339844 12.453125 23.617188 12.132813 22.6875 12.125 Z M 20 16C19.695313 16 19.40625 16.136719 19.21875 16.375C19.027344 16.613281 18.964844 16.921875 19.03125 17.21875C21.269531 27.097656 18.246094 31.371094 18.21875 31.40625C17.988281 31.707031 17.925781 32.09375 18.09375 32.4375C18.261719 32.777344 18.621094 33 19 33L34.125 33C34.652344 33 35.058594 32.585938 35.09375 32.0625C35.351563 28.429688 33.910156 24.71875 31 21.59375C27.882813 18.246094 23.457031 16 20 16 Z M 10 34C9.449219 34 9 34.445313 9 35C9 36.191406 9.140625 37.246094 9.4375 38.1875C9.792969 38.324219 10.121094 38.519531 10.40625 38.78125C11.304688 39.609375 12.878906 40 13.9375 40C14.996094 40 16.539063 39.609375 17.4375 38.78125C17.992188 38.269531 18.710938 38 19.46875 38C20.226563 38 20.945313 38.269531 21.5 38.78125C22.398438 39.609375 23.941406 40 25 40C26.058594 40 27.601563 39.609375 28.5 38.78125C29.058594 38.269531 29.773438 38 30.53125 38C31.289063 38 32.007813 38.269531 32.5625 38.78125C33.464844 39.609375 35.003906 40 36.0625 40C37.121094 40 38.695313 39.609375 39.59375 38.78125C39.710938 38.675781 39.839844 38.585938 39.96875 38.5C40.453125 37.550781 40.816406 36.464844 41 35.15625C41.039063 34.871094 40.941406 34.5625 40.75 34.34375C40.558594 34.125 40.289063 34 40 34 Z M 8.21875 40C8.03125 40.035156 7.859375 40.121094 7.71875 40.25C6.355469 41.507813 4.167969 42 2.84375 42C2.222656 42 1.703125 41.9375 1.1875 41.84375C0.644531 41.738281 0.121094 42.097656 0.015625 42.640625C-0.0898438 43.183594 0.269531 43.707031 0.8125 43.8125C1.40625 43.917969 2.082031 44 2.84375 44C4.40625 44 6.5625 43.460938 8.375 42.125C10.191406 43.476563 12.371094 44 13.9375 44C15.5 44 17.625 43.460938 19.4375 42.125C21.253906 43.472656 23.433594 44 25 44C26.566406 44 28.746094 43.472656 30.5625 42.125C32.375 43.460938 34.5 44 36.0625 44C37.628906 44 39.808594 43.476563 41.625 42.125C43.4375 43.460938 45.59375 44 47.15625 44C48.039063 44 48.773438 43.839844 49.375 43.59375C49.894531 43.386719 50.144531 42.800781 49.9375 42.28125C49.730469 41.761719 49.144531 41.511719 48.625 41.71875C48.242188 41.875 47.785156 42 47.15625 42C45.832031 42 43.644531 41.507813 42.28125 40.25C41.898438 39.902344 41.320313 39.902344 40.9375 40.25C39.574219 41.507813 37.386719 42 36.0625 42C34.738281 42 32.582031 41.507813 31.21875 40.25C30.835938 39.902344 30.257813 39.902344 29.875 40.25C28.511719 41.507813 26.324219 42 25 42C23.675781 42 21.488281 41.507813 20.125 40.25C19.742188 39.902344 19.164063 39.902344 18.78125 40.25C17.417969 41.507813 15.261719 42 13.9375 42C12.613281 42 10.425781 41.507813 9.0625 40.25C8.835938 40.039063 8.523438 39.949219 8.21875 40 Z M 8.21875 44C8.03125 44.035156 7.859375 44.121094 7.71875 44.25C6.355469 45.507813 4.167969 46 2.84375 46C2.222656 46 1.703125 45.9375 1.1875 45.84375C0.644531 45.738281 0.121094 46.097656 0.015625 46.640625C-0.0898438 47.183594 0.269531 47.707031 0.8125 47.8125C1.40625 47.917969 2.082031 48 2.84375 48C4.40625 48 6.5625 47.460938 8.375 46.125C10.191406 47.476563 12.371094 48 13.9375 48C15.5 48 17.625 47.460938 19.4375 46.125C21.253906 47.472656 23.433594 48 25 48C26.566406 48 28.746094 47.472656 30.5625 46.125C32.375 47.460938 34.5 48 36.0625 48C37.628906 48 39.808594 47.476563 41.625 46.125C43.4375 47.460938 45.59375 48 47.15625 48C48.039063 48 48.773438 47.839844 49.375 47.59375C49.894531 47.386719 50.144531 46.800781 49.9375 46.28125C49.730469 45.761719 49.144531 45.511719 48.625 45.71875C48.242188 45.875 47.785156 46 47.15625 46C45.832031 46 43.644531 45.507813 42.28125 44.25C41.898438 43.902344 41.320313 43.902344 40.9375 44.25C39.574219 45.507813 37.386719 46 36.0625 46C34.738281 46 32.582031 45.507813 31.21875 44.25C30.835938 43.902344 30.257813 43.902344 29.875 44.25C28.511719 45.507813 26.324219 46 25 46C23.675781 46 21.488281 45.507813 20.125 44.25C19.742188 43.902344 19.164063 43.902344 18.78125 44.25C17.417969 45.507813 15.261719 46 13.9375 46C12.613281 46 10.425781 45.507813 9.0625 44.25C8.835938 44.039063 8.523438 43.949219 8.21875 44Z" />
</svg>