<?xml version="1.0" encoding="utf-8"?>
<svg xmlns="http://www.w3.org/2000/svg" viewBox="0 0 50 50" width="500" height="500">
  <path d="M4.003906 3L4.003906 11L6.003906 11L6.003906 3 Z M 9.003906 3L9.003906 5L11.003906 5L11.003906 3 Z M 14.003906 3L14.003906 11L16.003906 11L16.003906 3 Z M 19.003906 3L19.003906 5L21.003906 5L21.003906 3 Z M 24.003906 3L24.003906 11L26.003906 11L26.003906 3 Z M 29.003906 3L29.003906 5L31.003906 5L31.003906 3 Z M 34.003906 3L34.003906 11L36.003906 11L36.003906 3 Z M 39.003906 3L39.003906 5L41.003906 5L41.003906 3 Z M 44.003906 3L44.003906 11L46.003906 11L46.003906 3 Z M 7.003906 6L7.003906 8L13.003906 8L13.003906 6 Z M 17.003906 6L17.003906 8L23.003906 8L23.003906 6 Z M 27.003906 6L27.003906 8L33.003906 8L33.003906 6 Z M 37.003906 6L37.003906 8L43.003906 8L43.003906 6 Z M 9.003906 9L9.003906 17L11.003906 17L11.003906 9 Z M 19.003906 9L19.003906 17L21.003906 17L21.003906 9 Z M 29.003906 9L29.003906 17L31.003906 17L31.003906 9 Z M 39.003906 9L39.003906 17L41.003906 17L41.003906 9 Z M 4.003906 12L4.003906 14L8.003906 14L8.003906 12 Z M 12.003906 12L12.003906 14L18.003906 14L18.003906 12 Z M 22.003906 12L22.003906 14L28.003906 14L28.003906 12 Z M 32.003906 12L32.003906 14L38.003906 14L38.003906 12 Z M 42.003906 12L42.003906 14L46.003906 14L46.003906 12 Z M 4.003906 15L4.003906 23L6.003906 23L6.003906 15 Z M 14.003906 15L14.003906 23L16.003906 23L16.003906 15 Z M 24.003906 15L24.003906 23L26.003906 23L26.003906 15 Z M 34.003906 15L34.003906 23L36.003906 23L36.003906 15 Z M 44.003906 15L44.003906 23L46.003906 23L46.003906 15 Z M 7.003906 18L7.003906 20L13.003906 20L13.003906 18 Z M 17.003906 18L17.003906 20L23.003906 20L23.003906 18 Z M 27.003906 18L27.003906 20L33.003906 20L33.003906 18 Z M 37.003906 18L37.003906 20L43.003906 20L43.003906 18 Z M 9.003906 21L9.003906 29L11.003906 29L11.003906 21 Z M 19.003906 21L19.003906 29L21.003906 29L21.003906 21 Z M 29.003906 21L29.003906 29L31.003906 29L31.003906 21 Z M 39.003906 21L39.003906 29L41.003906 29L41.003906 21 Z M 4.003906 24L4.003906 26L8.003906 26L8.003906 24 Z M 12.003906 24L12.003906 26L18.003906 26L18.003906 24 Z M 22.003906 24L22.003906 26L28.003906 26L28.003906 24 Z M 32.003906 24L32.003906 26L38.003906 26L38.003906 24 Z M 42.003906 24L42.003906 26L46.003906 26L46.003906 24 Z M 4.003906 27L4.003906 35L6.003906 35L6.003906 27 Z M 14.003906 27L14.003906 35L16.003906 35L16.003906 27 Z M 24.003906 27L24.003906 35L26.003906 35L26.003906 27 Z M 34.003906 27L34.003906 35L36.003906 35L36.003906 27 Z M 44.003906 27L44.003906 35L46.003906 35L46.003906 27 Z M 7.003906 30L7.003906 32L13.003906 32L13.003906 30 Z M 17.003906 30L17.003906 32L23.003906 32L23.003906 30 Z M 27.003906 30L27.003906 32L33.003906 32L33.003906 30 Z M 37.003906 30L37.003906 32L43.003906 32L43.003906 30 Z M 9.003906 33L9.003906 41L11.003906 41L11.003906 33 Z M 19.003906 33L19.003906 41L21.003906 41L21.003906 33 Z M 29.003906 33L29.003906 41L31.003906 41L31.003906 33 Z M 39.003906 33L39.003906 41L41.003906 41L41.003906 33 Z M 4.003906 36L4.003906 38L8.003906 38L8.003906 36 Z M 12.003906 36L12.003906 38L18.003906 38L18.003906 36 Z M 22.003906 36L22.003906 38L28.003906 38L28.003906 36 Z M 32.003906 36L32.003906 38L38.003906 38L38.003906 36 Z M 42.003906 36L42.003906 38L46.003906 38L46.003906 36 Z M 4.003906 39L4.003906 47L6.003906 47L6.003906 39 Z M 14.003906 39L14.003906 47L16.003906 47L16.003906 39 Z M 24.003906 39L24.003906 47L26.003906 47L26.003906 39 Z M 34.003906 39L34.003906 47L36.003906 47L36.003906 39 Z M 44.003906 39L44.003906 47L46.003906 47L46.003906 39 Z M 7.003906 42L7.003906 44L13.003906 44L13.003906 42 Z M 17.003906 42L17.003906 44L23.003906 44L23.003906 42 Z M 27.003906 42L27.003906 44L33.003906 44L33.003906 42 Z M 37.003906 42L37.003906 44L43.003906 44L43.003906 42 Z M 9.003906 45L9.003906 47L11.003906 47L11.003906 45 Z M 19.003906 45L19.003906 47L21.003906 47L21.003906 45 Z M 29.003906 45L29.003906 47L31.003906 47L31.003906 45 Z M 39.003906 45L39.003906 47L41.003906 47L41.003906 45Z" />
</svg>