<?xml version="1.0" encoding="utf-8"?>
<svg xmlns="http://www.w3.org/2000/svg" viewBox="0 0 50 50" width="500" height="500">
  <path d="M8 8C5.757 8 4 9.757 4 12L4 34C4 34.738 4.2050625 35.413 4.5390625 36L2 36C1.447 36 1 36.447 1 37C1 39.757 3.243 42 6 42L44 42C46.757 42 49 39.757 49 37C49 36.447 48.553 36 48 36L45.460938 36C45.794938 35.413 46 34.738 46 34L46 12C46 9.757 44.243 8 42 8L8 8 z M 8 10L42 10C43.141 10 44 10.859 44 12L44 34C44 35.141 43.141 36 42 36L8 36C6.859 36 6 35.141 6 34L6 12C6 10.859 6.859 10 8 10 z M 26.498047 14.986328 A 1.0001 1.0001 0 0 0 25.521484 15.791016L22.521484 29.791016 A 1.0005838 1.0005838 0 1 0 24.478516 30.208984L27.478516 16.208984 A 1.0001 1.0001 0 0 0 26.498047 14.986328 z M 18.037109 17.988281 A 1.0001 1.0001 0 0 0 17.199219 18.400391L13.75 23L17.199219 27.599609 A 1.0003905 1.0003905 0 1 0 18.800781 26.400391L16.25 23L18.800781 19.599609 A 1.0001 1.0001 0 0 0 18.037109 17.988281 z M 31.933594 17.990234 A 1.0001 1.0001 0 0 0 31.199219 19.599609L33.75 23L31.199219 26.400391 A 1.0003905 1.0003905 0 1 0 32.800781 27.599609L36.25 23L32.800781 18.400391 A 1.0001 1.0001 0 0 0 31.933594 17.990234 z" />
</svg>