<?xml version="1.0" encoding="utf-8"?>
<svg xmlns="http://www.w3.org/2000/svg" viewBox="0 0 50 50" width="500" height="500">
  <path d="M25 -0.001953125C18.6025 -0.001953125 12.204766 2.4397656 7.3222656 7.3222656C-2.4427344 17.087266 -2.4427344 32.912734 7.3222656 42.677734C17.087266 52.442734 32.912734 52.442734 42.677734 42.677734C52.442734 32.912734 52.442734 17.087266 42.677734 7.3222656C37.795234 2.4397656 31.3975 -0.001953125 25 -0.001953125 z M 25 2.0117188C30.89025 2.0117188 36.780672 4.2533281 41.263672 8.7363281C50.229672 17.702328 50.229672 32.297672 41.263672 41.263672C32.297672 50.229672 17.702328 50.230672 8.7363281 41.263672C-0.22967187 32.297672 -0.22967187 17.702328 8.7363281 8.7363281C13.219328 4.2533281 19.10975 2.0117188 25 2.0117188 z M 25 4.0332031C19.942375 4.0332031 14.884578 5.8475156 10.892578 9.4785156L11.564453 10.150391C11.953453 10.539391 11.953453 11.175453 11.564453 11.564453C11.175453 11.953453 10.539391 11.953453 10.150391 11.564453L9.4785156 10.892578C2.2165156 18.875578 2.2165156 31.123422 9.4785156 39.107422L10.150391 38.435547C10.539391 38.046547 11.175453 38.046547 11.564453 38.435547C11.953453 38.824547 11.953453 39.460609 11.564453 39.849609L10.892578 40.521484C18.875578 47.783484 31.123422 47.783484 39.107422 40.521484L38.435547 39.849609C38.046547 39.460609 38.046547 38.824547 38.435547 38.435547C38.824547 38.046547 39.460609 38.046547 39.849609 38.435547L40.521484 39.107422C47.783484 31.124422 47.783484 18.876578 40.521484 10.892578L39.849609 11.564453C39.460609 11.953453 38.824547 11.953453 38.435547 11.564453C38.046547 11.175453 38.046547 10.539391 38.435547 10.150391L39.107422 9.4785156C35.115922 5.8475156 30.057625 4.0332031 25 4.0332031 z M 36.703125 12.398438C36.925875 12.421438 37.140547 12.519953 37.310547 12.689453C37.650547 13.028453 37.7065 13.551266 37.4375 13.947266L28.167969 27.884766C28.096969 27.997766 27.997766 28.096969 27.884766 28.167969L13.947266 37.4375C13.544266 37.6995 13.014641 37.650359 12.681641 37.318359C12.342641 36.979359 12.2935 36.448734 12.5625 36.052734L21.832031 22.115234C21.903031 22.002234 22.002234 21.903031 22.115234 21.832031L36.052734 12.5625C36.250734 12.428 36.480375 12.375437 36.703125 12.398438 z M 23.388672 23.388672L16.980469 33.019531L26.611328 26.611328L23.388672 23.388672 z" />
</svg>