<?xml version="1.0" encoding="utf-8"?>
<svg xmlns="http://www.w3.org/2000/svg" viewBox="0 0 50 50" width="500" height="500">
  <path d="M19 4C18.582 4 18.2075 4.2603437 18.0625 4.6523438C17.9165 5.0453437 18.030656 5.4877656 18.347656 5.7597656L20.279297 7.4140625C21.345297 8.3280625 21.967422 9.6585 21.982422 11.0625C21.990422 11.7355 21.853609 12.391047 21.599609 12.998047L26 12.998047C26.006688 12.998047 26.012853 12.999956 26.019531 13L19 13L16.242188 13L17.121094 12.121094C18.291094 10.951094 18.291094 9.0479062 17.121094 7.8789062C15.952094 6.7079062 14.048906 6.7098594 12.878906 7.8808594L6.1054688 14.671875C5.3895933 15.389434 4.8576615 16.17469 4.5058594 17L2 17L2 19L6 19L6.0253906 19C6.1513906 17.723 6.8884844 16.717031 7.5214844 16.082031L14.292969 9.2929688C14.682969 8.9029687 15.317031 8.9029687 15.707031 9.2929688C15.896031 9.4819688 16 9.733 16 10C16 10.267 15.895031 10.518031 15.707031 10.707031L11.414062 15L17 15L19 15L27 15C27.56503 15 28 15.43497 28 16C28 16.56503 27.56503 17 27 17L19 17L19 19L27 19L29 19C29.56503 19 30 19.43497 30 20C30 20.56503 29.56503 21 29 21L27 21L19 21L19 23L27 23C27.56503 23 28 23.43497 28 24C28 24.56503 27.56503 25 27 25L23.005859 25L19 25L19 27L23 27C23.551 27 24 27.448 24 28C24 28.552 23.551 29 23 29L11 29C9.373 29 7.9383906 28.207 7.0253906 27L7 27L4.6855469 27L2 27L2 29L6.1386719 29C7.3983571 30.229184 9.1066053 31 11.001953 31L18.285156 31C18.814156 31.727 19.421422 32.401 20.107422 33L35.892578 33C38.465578 30.754 40 27.516 40 24C40 20.601 38.524125 17.331297 35.953125 15.029297L35.638672 14.746094C34.592672 13.808094 34.001578 12.4665 34.017578 11.0625C34.033578 9.6585 34.653703 8.3280625 35.720703 7.4140625L37.652344 5.7597656C37.969344 5.4877656 38.0835 5.0443437 37.9375 4.6523438C37.7925 4.2603438 37.418 4 37 4L19 4 z M 10 35C9.447 35 9 35.447 9 36L9 41C9 41.553 9.447 42 10 42L27 42L27 46L29 46L29 42L46 42C46.553 42 47 41.553 47 41L47 36C47 35.447 46.553 35 46 35L10 35 z" />
</svg>