<?xml version="1.0" encoding="utf-8"?>
<svg xmlns="http://www.w3.org/2000/svg" viewBox="0 0 50 50" width="500" height="500">
  <path d="M21 0C9.421875 0 0 9.421875 0 21C0 32.578125 9.421875 42 21 42C32.578125 42 42 32.578125 42 21C42 9.421875 32.578125 0 21 0 Z M 21 12C25.960938 12 30 16.039063 30 21C30 25.960938 25.960938 30 21 30C16.039063 30 12 25.960938 12 21C12 16.039063 16.039063 12 21 12 Z M 42.53125 12.875C43.488281 15.402344 44 18.144531 44 21C44 33.683594 33.683594 44 21 44C18.144531 44 15.402344 43.488281 12.875 42.53125C16.828125 47.222656 22.710938 50 29 50C40.578125 50 50 40.578125 50 29C50 22.710938 47.222656 16.828125 42.53125 12.875 Z M 21 14C17.140625 14 14 17.140625 14 21C14 24.859375 17.140625 28 21 28C24.859375 28 28 24.859375 28 21C28 17.140625 24.859375 14 21 14 Z M 21 19C22.105469 19 23 19.894531 23 21C23 22.105469 22.105469 23 21 23C19.894531 23 19 22.105469 19 21C19 19.894531 19.894531 19 21 19Z" />
</svg>