<?xml version="1.0" encoding="utf-8"?>
<svg xmlns="http://www.w3.org/2000/svg" viewBox="0 0 50 50" width="500" height="500">
  <path d="M19.5 2C17.015625 2 15 4.015625 15 6.5C15 8.984375 17.015625 11 19.5 11C21.984375 11 24 8.984375 24 6.5C24 4.015625 21.984375 2 19.5 2 Z M 26 12C25.894531 12 25.785156 12.007813 25.679688 12.027344L25.667969 12.023438L16.65625 14.03125C16.058594 14.136719 15.539063 14.507813 15.246094 15.042969L15.242188 15.046875L12.375 19.855469L7.078125 19.070313C6.890625 19.023438 6.695313 19 6.5 19C5.121094 19 4 20.121094 4 21.5C4 22.824219 5.03125 23.917969 6.351563 23.996094L13.078125 24.941406L13.082031 24.9375C13.21875 24.980469 13.359375 25 13.5 25C14.0625 25 14.582031 24.683594 14.835938 24.179688L14.839844 24.179688L16 22.488281L16 28.402344L13.226563 36.0625L13.222656 36.082031C13.078125 36.367188 13 36.679688 13 37C13 37.117188 13.011719 37.234375 13.03125 37.351563L13.03125 37.371094L15.050781 46.015625L15.054688 46.015625C15.296875 47.171875 16.320313 48 17.5 48C18.878906 48 20 46.878906 20 45.5C20 45.222656 19.953125 44.949219 19.859375 44.6875L19.867188 44.6875L18.125 37.992188L20.417969 33L22 37.625L22.453125 38.554688L27.53125 45.046875L27.535156 45.046875C28.011719 45.648438 28.734375 46 29.5 46C30.878906 46 32 44.878906 32 43.5C32 42.890625 31.777344 42.300781 31.375 41.84375L26 34.0625L26 17.636719L29.464844 20.59375L29.480469 20.597656C29.757813 20.855469 30.121094 21 30.5 21C30.65625 21 30.8125 20.976563 30.957031 20.925781L30.980469 20.933594L37.136719 18.914063C38.234375 18.625 39 17.632813 39 16.5C39 15.121094 37.878906 14 36.5 14C36.128906 14 35.757813 14.085938 35.421875 14.25L35.421875 14.246094L31.027344 15.894531L27.457031 12.636719C27.082031 12.230469 26.554688 12 26 12 Z M 41.019531 21C40.460938 21 40 21.441406 40 22L40 30C40 30.550781 39.550781 31 39 31L37 31C35.34375 31 34 32.34375 34 34C34 35.65625 35.34375 37 37 37L38 37C40.210938 37 42 35.210938 42 33L42 25.5C42 25.238281 42.207031 25.007813 42.46875 25C43.5 24.980469 43.980469 26 46 26C46.550781 26 47 25.550781 47 25L47 23C47 22.449219 46.550781 22 46 22C43.261719 22 43.457031 21.003906 41.019531 21Z" />
</svg>