<?xml version="1.0" encoding="utf-8"?>
<svg xmlns="http://www.w3.org/2000/svg" viewBox="0 0 50 50" width="500" height="500">
  <path d="M25 1C10.972656 1 4.144531 4.511719 3.59375 12L5.5625 12C5.734375 8.683594 7.464844 3 25 3C42.535156 3 44.265625 8.683594 44.4375 12L46.4375 12C46.117188 7.007813 43.015625 1 25 1 Z M 3.03125 14C1.996094 16.609375 0 22.539063 0 29.59375C0 34.195313 0.1875 38.835938 0.5 42.34375C1.007813 48.007813 1.625 49 2.75 49L47.3125 49C48.113281 49 50 49.011719 50 29.59375C50 22.5625 48 16.613281 46.96875 14 Z M 25 18.9375C30.605469 18.9375 35.15625 23.453125 35.15625 29C35.15625 34.546875 30.605469 39.03125 25 39.03125C19.398438 39.03125 14.84375 34.546875 14.84375 29C14.84375 23.453125 19.398438 18.9375 25 18.9375 Z M 23 23L23 27L19 27L19 31L23 31L23 35L27 35L27 31L31 31L31 27L27 27L27 23Z" />
</svg>