<?xml version="1.0" encoding="utf-8"?>
<svg xmlns="http://www.w3.org/2000/svg" viewBox="0 0 50 50" width="500" height="500">
  <path d="M35.15625 0.03125C34.808594 0.03125 34.457031 0.183594 34.28125 0.5L26.78125 13.9375C26.644531 14.179688 26.632813 14.484375 26.71875 14.75C26.804688 15.015625 26.996094 15.226563 27.25 15.34375C27.402344 15.414063 31.054688 17.09375 35.25 17.09375C39.457031 17.09375 42.949219 15.414063 43.09375 15.34375C43.339844 15.222656 43.511719 14.980469 43.59375 14.71875C43.675781 14.457031 43.632813 14.175781 43.5 13.9375L36.03125 0.5C35.855469 0.183594 35.503906 0.03125 35.15625 0.03125 Z M 14.84375 1.90625C12.160156 1.90625 9.65625 3.460938 8.34375 5.875C5.683594 6.34375 3.6875 8.730469 3.6875 11.5625C3.6875 11.777344 3.695313 11.972656 3.71875 12.1875C2.503906 13.601563 1.84375 15.40625 1.84375 17.3125C1.84375 17.960938 1.929688 18.632813 2.125 19.34375C1.933594 19.9375 1.84375 20.542969 1.84375 21.15625C1.84375 21.597656 1.894531 22.058594 2 22.5C0.734375 23.597656 0 25.179688 0 26.90625C0 29.378906 1.496094 31.558594 3.6875 32.375C3.679688 32.480469 3.6875 32.582031 3.6875 32.6875C3.6875 35.882813 6.214844 38.46875 9.3125 38.46875C9.566406 38.46875 9.820313 38.492188 10.0625 38.5C10.941406 38.53125 11.882813 38.539063 12.71875 38.125C13.507813 39.1875 14.664063 39.5625 15.75 39.5625C16.375 39.5625 16.972656 39.4375 17.46875 39.28125C17.871094 39.492188 18.269531 39.632813 18.65625 39.71875C18.183594 38.789063 18.183594 37.640625 18.78125 36.71875L23.125 30.0625C22.484375 29.664063 22.121094 29.308594 21.96875 29.15625C21 28.191406 20.808594 26.714844 21.5 25.53125L26.0625 17.71875L26.40625 17.09375C26.40625 17.09375 25.988281 16.914063 25.8125 16.78125C25.351563 16.417969 24.996094 15.945313 24.8125 15.375C24.554688 14.585938 24.628906 13.699219 25.03125 12.96875L25.28125 12.5625C24.632813 11.371094 23.566406 10.445313 22.28125 9.96875C22.289063 9.863281 22.3125 9.730469 22.3125 9.625C22.3125 5.367188 18.957031 1.90625 14.84375 1.90625 Z M 28.28125 17.875L23.21875 26.53125C22.988281 26.925781 23.050781 27.429688 23.375 27.75C23.488281 27.863281 24.558594 28.882813 27.28125 29.6875C29.503906 30.34375 32.1875 30.6875 35.28125 30.6875C44.09375 30.6875 46.699219 27.992188 46.96875 27.6875C47.25 27.367188 47.3125 26.902344 47.09375 26.53125L42.0625 17.90625C40.460938 18.460938 38.019531 19.09375 35.25 19.09375C32.457031 19.09375 29.921875 18.425781 28.28125 17.875 Z M 24.96875 30.96875L20.53125 37.8125C20.257813 38.234375 20.332031 38.800781 20.71875 39.125C20.875 39.257813 24.636719 42.3125 35.375 42.3125C46.140625 42.3125 49.609375 39.226563 49.75 39.09375C50.101563 38.761719 50.167969 38.21875 49.90625 37.8125L45.5 31.03125C43.464844 31.898438 40.253906 32.6875 35.34375 32.6875C32.058594 32.6875 29.1875 32.308594 26.78125 31.59375C26.09375 31.390625 25.492188 31.1875 24.96875 30.96875 Z M 12.625 40.6875C12.867188 44.910156 11.445313 45.859375 10.4375 46.53125C9.742188 46.996094 8.695313 47.691406 9.0625 49.21875C9.171875 49.667969 9.570313 50 10.03125 50L21.875 50C22.425781 50 22.875 49.554688 22.875 49C22.875 48.074219 22.238281 47.554688 21.65625 47.09375C20.75 46.375 19.375 45.265625 18.8125 41.75C18.296875 41.683594 17.777344 41.566406 17.28125 41.375C16.839844 41.464844 16.324219 41.5625 15.75 41.5625C14.582031 41.5625 13.519531 41.238281 12.625 40.6875 Z M 39.125 44.1875C37.964844 44.273438 36.714844 44.3125 35.34375 44.3125C34.433594 44.3125 33.570313 44.289063 32.75 44.25C32.757813 45.84375 32.4375 46.59375 32.125 46.9375C31.789063 47.308594 31.308594 47.375 30.59375 47.375L30.21875 47.375C29.785156 47.375 29.078125 47.386719 28.625 47.9375C28.4375 48.167969 28.222656 48.570313 28.34375 49.1875C28.4375 49.65625 28.867188 50 29.34375 50L41.75 50C41.757813 50 41.773438 50 41.78125 50C42.335938 50 42.78125 49.554688 42.78125 49C42.78125 48.6875 42.632813 48.402344 42.40625 48.21875C41.660156 47.414063 40.753906 47.40625 40.25 47.40625L40.09375 47.40625C39.769531 47.40625 39.644531 47.394531 39.59375 47.34375C39.476563 47.226563 39.136719 46.644531 39.125 44.1875Z" />
</svg>