<?xml version="1.0" encoding="utf-8"?>
<svg xmlns="http://www.w3.org/2000/svg" viewBox="0 0 50 50" width="500" height="500">
  <path d="M34.21875 4.125C33.199219 4.183594 32.195313 4.433594 31.25 4.90625L25.75 7.59375L10.09375 7.59375L1.1875 5.5C0.886719 5.398438 0.613281 5.488281 0.3125 5.6875C0.113281 5.789063 0 6.105469 0 6.40625L0 28.1875C0 28.6875 0.414063 29.085938 0.8125 29.1875L4.125 29.75C3.816406 30.988281 4.128906 32.347656 5.09375 33.3125C5.867188 34.085938 6.894531 34.449219 7.90625 34.40625C7.863281 35.417969 8.226563 36.445313 9 37.21875C9.773438 37.992188 10.800781 38.355469 11.8125 38.3125C11.78125 39.316406 12.140625 40.328125 12.90625 41.09375C13.652344 41.839844 14.640625 42.203125 15.625 42.1875C15.601563 43.175781 15.953125 44.171875 16.6875 44.90625L16.71875 44.9375C17.84375 46.035156 19.511719 46.285156 20.875 45.6875L22.5 47.3125C23.300781 48.113281 24.398438 48.59375 25.5 48.59375C26.601563 48.59375 27.699219 48.210938 28.5 47.3125C29.300781 46.511719 29.710938 45.507813 29.8125 44.40625C31.210938 44.707031 32.804688 44.3125 33.90625 43.3125C34.707031 42.511719 35.085938 41.507813 35.1875 40.40625C36.585938 40.707031 38.210938 40.3125 39.3125 39.3125C40.210938 38.414063 40.601563 37.105469 40.5 35.90625C41.800781 36.007813 43.007813 35.585938 43.90625 34.6875C44.996094 33.597656 45.375 31.949219 45 30.5L45.46875 30.03125L49.15625 29.5C49.707031 29.414063 50.085938 28.894531 50 28.34375C49.914063 27.792969 49.394531 27.414063 48.84375 27.5L44.84375 28.125L44.53125 28.15625L43.21875 29.46875L31.09375 17.3125C31.4375 16.980469 31.496094 16.453125 31.238281 16.050781C30.980469 15.648438 30.476563 15.484375 30.03125 15.65625L23.53125 18.15625C20.113281 19.507813 16.265625 18.628906 13.84375 15.9375L13.8125 15.90625C13.683594 15.777344 13.675781 15.6875 13.84375 15.625L13.90625 15.625L13.9375 15.59375L32.125 6.6875L32.15625 6.6875C34 5.765625 36.152344 5.953125 37.84375 7.09375L38.21875 7.53125L38.3125 7.65625L38.4375 7.71875C40.253906 8.96875 42.441406 9.300781 44.5 8.75L44.5 8.78125L44.5625 8.75L49.21875 7.78125C49.761719 7.660156 50.105469 7.121094 49.984375 6.578125C49.863281 6.035156 49.324219 5.691406 48.78125 5.8125L44.09375 6.8125L44.0625 6.84375L44.03125 6.84375C42.539063 7.257813 41 6.984375 39.65625 6.09375L39.28125 5.65625L39.1875 5.5625L39.0625 5.46875C37.914063 4.664063 36.601563 4.226563 35.25 4.125C34.910156 4.101563 34.558594 4.105469 34.21875 4.125 Z M 8.75 27.84375C9.1875 27.84375 9.632813 28.039063 10 28.40625C10.734375 29.140625 10.734375 30.171875 10 30.90625L9.21875 31.65625L9.125 31.75L9 31.90625C8.265625 32.640625 7.234375 32.640625 6.5 31.90625C5.765625 31.171875 5.765625 30.140625 6.5 29.40625L7.375 28.5625L7.5 28.40625C7.867188 28.039063 8.3125 27.84375 8.75 27.84375 Z M 12.65625 31.75C13.09375 31.75 13.539063 31.945313 13.90625 32.3125C14.640625 33.046875 14.640625 34.046875 13.90625 34.78125L12.90625 35.78125C12.171875 36.515625 11.140625 36.515625 10.40625 35.78125C9.671875 35.046875 9.671875 34.046875 10.40625 33.3125L11.40625 32.3125C11.773438 31.945313 12.21875 31.75 12.65625 31.75 Z M 16.5625 35.65625C17 35.65625 17.414063 35.851563 17.78125 36.21875C18.386719 36.824219 18.488281 37.613281 18.09375 38.28125C17.957031 38.382813 17.8125 38.46875 17.6875 38.59375L16.6875 39.59375L16.6875 39.625L16.65625 39.625C16.546875 39.746094 16.464844 39.871094 16.375 40C15.707031 40.394531 14.917969 40.292969 14.3125 39.6875C13.578125 38.953125 13.578125 37.953125 14.3125 37.21875L15.0625 36.4375L15.25 36.28125L15.3125 36.21875C15.679688 35.851563 16.125 35.65625 16.5625 35.65625 Z M 20.34375 39.46875C20.78125 39.46875 21.226563 39.632813 21.59375 40C22.328125 40.734375 22.328125 41.765625 21.59375 42.5L20.59375 43.5C19.859375 44.234375 18.828125 44.234375 18.09375 43.5C17.621094 43.027344 17.511719 42.082031 17.84375 41.375C17.96875 41.277344 18.105469 41.207031 18.21875 41.09375L19.21875 40.09375C19.351563 39.960938 19.453125 39.804688 19.5625 39.65625C19.8125 39.53125 20.082031 39.46875 20.34375 39.46875Z" />
</svg>