<?xml version="1.0" encoding="utf-8"?>
<svg xmlns="http://www.w3.org/2000/svg" viewBox="0 0 50 50" width="500" height="500">
  <path d="M25 2C23.34375 2 22 3.34375 22 5L22 9L28 9L28 5C28 3.34375 26.65625 2 25 2 Z M 25 5C25.554688 5 26 5.449219 26 6C26 6.550781 25.554688 7 25 7C24.449219 7 24 6.550781 24 6C24 5.449219 24.449219 5 25 5 Z M 13 6C11.347656 6 10 7.347656 10 9L10 41C10 42.652344 11.347656 44 13 44L30.84375 44C32.394531 47.519531 35.914063 50 40 50C45.511719 50 50 45.511719 50 40C50 34.488281 45.511719 30 40 30L40 9C40 7.347656 38.652344 6 37 6L30 6L30 10C30 10.550781 29.554688 11 29 11L21 11C20.449219 11 20 10.550781 20 10L20 6 Z M 24.96875 16C25.949219 16 26.703125 16.261719 27 16.78125C29.863281 17.179688 28.976563 21.035156 28.5625 22.28125C28.714844 22.375 28.96875 22.660156 28.90625 23.1875C28.789063 24.167969 28.410156 24.417969 28.15625 24.4375C28.058594 25.351563 27.480469 26.421875 27.15625 26.59375C27.15625 27.246094 27.125 27.753906 27.1875 28.46875C27.839844 30.21875 32.117188 30.050781 32.875 33.03125C32.574219 33.335938 32.289063 33.65625 32.03125 34L17 34C17 33.84375 17.015625 33.703125 17.03125 33.5625L17 33.53125C17.386719 30.03125 22.09375 30.3125 22.78125 28.46875C22.785156 28.429688 22.8125 28.378906 22.84375 28.34375C22.894531 27.691406 22.875 27.210938 22.875 26.59375C22.550781 26.421875 21.941406 25.351563 21.84375 24.4375C21.589844 24.417969 21.179688 24.167969 21.0625 23.1875C21 22.660156 21.253906 22.375 21.40625 22.28125C20.546875 18.96875 21.042969 16.070313 24.96875 16 Z M 40 32C44.429688 32 48 35.570313 48 40C48 44.429688 44.429688 48 40 48C35.570313 48 32 44.429688 32 40C32 35.570313 35.570313 32 40 32 Z M 43.40625 35.1875L39.0625 41.90625L36.4375 39.5L35.09375 41L38.59375 44.15625L39.46875 44.96875L40.125 43.96875L45.09375 36.25Z" />
</svg>