<?xml version="1.0" encoding="utf-8"?>
<svg xmlns="http://www.w3.org/2000/svg" viewBox="0 0 50 50" width="500" height="500">
  <path d="M24 2C10.359375 2 3 12 3 21.40625C3 26.40625 4.949219 30.214844 6.84375 33.90625C8.464844 37.0625 10 40.039063 10 43.40625L10 48L34 48L34 45L35.875 45C40.347656 45 44 41.347656 44 36.875L44 32.65625L45.9375 31.84375C46.792969 31.484375 47.445313 30.785156 47.75 29.90625C48.054688 29.027344 47.984375 28.0625 47.53125 27.25L43.4375 19.875C41.992188 8.347656 35.09375 2 24 2 Z M 24 14C28.972656 14 33 18.027344 33 23C33 26.464844 31.027344 29.464844 28.15625 30.96875C27.664063 31.84375 27.257813 32.792969 27.09375 34L20.9375 34C20.777344 32.804688 20.332031 31.84375 19.84375 30.96875C16.960938 29.46875 15 26.472656 15 23C15 18.027344 19.027344 14 24 14 Z M 21.5 22C20.671875 22 20 22.671875 20 23.5C20 24.328125 20.671875 25 21.5 25C22.019531 25 22.480469 24.742188 22.75 24.34375C22.902344 24.519531 23 24.742188 23 25L23 32L25 32L25 25C25 24.742188 25.097656 24.519531 25.25 24.34375C25.519531 24.742188 25.980469 25 26.5 25C27.328125 25 28 24.328125 28 23.5C28 22.671875 27.328125 22 26.5 22L26 22C25.234375 22 24.53125 22.300781 24 22.78125C23.46875 22.300781 22.765625 22 22 22 Z M 21 36L27 36L27 37C27 37.8125 26.507813 38.5 25.8125 38.8125C25.5 39.507813 24.8125 40 24 40C23.1875 40 22.5 39.507813 22.1875 38.8125C21.492188 38.5 21 37.8125 21 37Z" />
</svg>