<?xml version="1.0" encoding="utf-8"?>
<svg xmlns="http://www.w3.org/2000/svg" viewBox="0 0 50 50" width="500" height="500">
  <path d="M45 3C44.480469 3 43.972656 3.214844 43.59375 3.59375C43.265625 3.921875 42.941406 4.234375 42.625 4.5625C43.160156 4.964844 43.695313 5.382813 44.15625 5.84375C44.636719 6.324219 45.078125 6.847656 45.5 7.375C45.808594 7.050781 46.117188 6.726563 46.4375 6.40625C47.214844 5.628906 47.214844 4.371094 46.4375 3.59375C46.058594 3.214844 45.519531 3 45 3 Z M 31.65625 3.15625C29.257813 3.304688 27.144531 4.128906 25.34375 5.65625C25.261719 5.710938 25.167969 5.777344 25.09375 5.84375C24.9375 5.976563 24.828125 6.113281 24.6875 6.25C24.675781 6.261719 24.667969 6.269531 24.65625 6.28125C24.652344 6.285156 24.628906 6.277344 24.625 6.28125C22.300781 8.578125 21.875 11.363281 21.25 14.40625C21.019531 15.527344 20.777344 16.757813 20.40625 18.125C21.703125 18.398438 22.96875 18.769531 24.25 19.15625C24.648438 17.679688 24.957031 16.34375 25.1875 15.21875C25.726563 12.585938 26.109375 10.757813 27.4375 9.15625C27.453125 9.140625 27.453125 9.109375 27.46875 9.09375C29.558594 7.003906 31.890625 7.015625 33.6875 7.21875C36.023438 7.484375 38.359375 8.546875 39.90625 10.09375C41.625 11.8125 42.785156 14 43.125 16.09375C43.492188 18.363281 43.21875 20.28125 41.59375 22C41.578125 22.015625 41.546875 22.015625 41.53125 22.03125C40.136719 23.425781 38.488281 24.101563 36.28125 24.125C35.703125 25.519531 35.265625 26.824219 34.90625 28.0625C35.339844 28.097656 35.75 28.125 36.15625 28.125C39.070313 28.125 41.496094 27.285156 43.53125 25.59375C43.691406 25.484375 43.855469 25.390625 43.96875 25.28125C44.089844 25.164063 44.167969 25.023438 44.28125 24.90625C44.300781 24.886719 44.324219 24.867188 44.34375 24.84375C44.371094 24.816406 44.410156 24.777344 44.4375 24.75C46.949219 22.070313 47.664063 19.003906 47.09375 15.46875C46.625 12.5625 45.015625 9.578125 42.71875 7.28125C40.554688 5.117188 37.359375 3.613281 34.15625 3.25C33.296875 3.152344 32.457031 3.105469 31.65625 3.15625 Z M 37.40625 10.65625C30.792969 19.167969 29.308594 25.277344 28.125 30.28125C27.199219 34.183594 26.546875 37.011719 23.625 39.9375C22.445313 41.113281 20.664063 41.75 18.59375 41.75C17.121094 41.75 15.617188 41.394531 14.25 40.78125C13.414063 41.769531 12.488281 42.816406 11.5 43.90625C13.652344 45.109375 16.113281 45.78125 18.5625 45.78125C21.714844 45.78125 24.496094 44.695313 26.4375 42.75C30.167969 39.023438 31.078125 35.214844 32.03125 31.1875C33.148438 26.46875 34.410156 21.183594 40.125 13.65625C39.683594 12.894531 39.125 12.1875 38.46875 11.53125C38.152344 11.214844 37.800781 10.921875 37.40625 10.65625 Z M 15.46875 19.5625C11.9375 19.5625 9.078125 20.734375 6.6875 23.125C2.875 26.933594 3.277344 33.363281 5.875 38.15625C6.933594 36.976563 7.894531 35.902344 8.75 34.875C7.496094 31.726563 7.414063 28.023438 9.5 25.9375C11.121094 24.316406 13.042969 23.5625 15.53125 23.5625C18.5 23.5625 21.84375 24.652344 25.4375 25.8125C25.988281 25.988281 26.511719 26.140625 27.0625 26.3125C27.394531 25.113281 27.8125 23.84375 28.3125 22.5C27.746094 22.324219 27.167969 22.15625 26.59375 21.96875C22.914063 20.78125 19.101563 19.5625 15.46875 19.5625 Z M 17.40625 25.71875C15.070313 30.257813 11.457031 35.359375 3.59375 43.5625C3.214844 43.941406 3 44.433594 3 44.96875C3 45.503906 3.214844 46.03125 3.59375 46.40625C3.972656 46.785156 4.464844 46.96875 5 46.96875C5.535156 46.96875 6.070313 46.753906 6.4375 46.375C15.425781 37.144531 19.222656 31.199219 21.4375 26.65625C20.027344 26.242188 18.667969 25.902344 17.40625 25.71875Z" />
</svg>