<?xml version="1.0" encoding="utf-8"?>
<svg xmlns="http://www.w3.org/2000/svg" viewBox="0 0 50 50" width="500" height="500">
  <path d="M33.5 2C32.976563 2 32.46875 2.164063 32.046875 2.46875L32.042969 2.46875L21.292969 9.3125C20.496094 9.753906 20 10.589844 20 11.5C20 12.878906 21.121094 14 22.5 14C23.019531 14 23.523438 13.835938 23.945313 13.535156L34.78125 6.648438L34.777344 6.648438C35.535156 6.195313 36 5.382813 36 4.5C36 3.121094 34.878906 2 33.5 2 Z M 35.691406 8.117188L24.75 14.761719L31.046875 25.128906L41.984375 18.484375 Z M 44.5 19C43.976563 19 43.46875 19.164063 43.046875 19.46875L43.042969 19.46875L32.257813 26.332031C31.480469 26.777344 31 27.605469 31 28.5C31 29.878906 32.121094 31 33.5 31C34.027344 31 34.542969 30.828125 34.96875 30.515625L45.78125 23.644531C46.535156 23.195313 47 22.378906 47 21.5C47 20.121094 45.878906 19 44.5 19 Z M 25.75 19.050781L3.6875 31.300781C2.65625 31.804688 2 32.851563 2 34C2 35.65625 3.34375 37 5 37C5.585938 37 6.160156 36.824219 6.648438 36.5L6.652344 36.503906L27.8125 22.449219 Z M 27 43C25.894531 43 25 43.894531 25 45L25 48L48 48L48 45C48 43.894531 47.105469 43 46 43Z" />
</svg>