<?xml version="1.0" encoding="utf-8"?>
<svg xmlns="http://www.w3.org/2000/svg" viewBox="0 0 50 50" width="500" height="500">
  <path d="M25 0.0625C24.8125 0.0625 24.648438 0.0859375 24.5 0.1875L18.09375 4.1875L17.8125 4.40625C17.011719 4.90625 16 5.605469 16 6.90625L16 7.625L1.3125 3.03125C1.152344 2.980469 0.980469 2.96875 0.8125 3C0.328125 3.050781 -0.0507813 3.445313 -0.0820313 3.929688C-0.113281 4.417969 0.210938 4.859375 0.6875 4.96875L16.6875 9.96875C16.820313 10.007813 16.957031 10.015625 17.09375 10L18 10L18 12L17.3125 12C17.167969 11.96875 17.019531 11.96875 16.875 12C16.8125 12.003906 16.75 12.015625 16.6875 12.03125C16.65625 12.039063 16.621094 12.050781 16.59375 12.0625L0.6875 17.03125C0.152344 17.203125 -0.140625 17.777344 0.03125 18.3125C0.203125 18.847656 0.777344 19.140625 1.3125 18.96875L16 14.375L16 15.3125C16 16.625 16.921875 17.6875 18.15625 17.9375L16.84375 23.6875L15.03125 31.46875C14.921875 31.65625 14.878906 31.878906 14.90625 32.09375L13.21875 39.3125C12.992188 39.566406 12.90625 39.921875 13 40.25L11.375 47.34375C11.285156 47.503906 11.242188 47.691406 11.25 47.875L11.03125 48.78125C10.964844 49.078125 11.035156 49.386719 11.222656 49.621094C11.414063 49.859375 11.699219 49.996094 12 50L38 50C38.300781 49.996094 38.585938 49.859375 38.777344 49.621094C38.964844 49.386719 39.035156 49.078125 38.96875 48.78125L37.59375 42.8125C37.597656 42.636719 37.554688 42.464844 37.46875 42.3125L36.1875 36.71875C36.277344 36.390625 36.195313 36.035156 35.96875 35.78125L33.21875 24C33.238281 23.792969 33.195313 23.585938 33.09375 23.40625L31.84375 17.9375C33.078125 17.6875 34 16.625 34 15.3125L34 14.375L48.6875 18.96875C49.222656 19.140625 49.796875 18.847656 49.96875 18.3125C50.140625 17.777344 49.847656 17.203125 49.3125 17.03125L33.40625 12.0625C33.378906 12.050781 33.34375 12.039063 33.3125 12.03125C33.179688 11.992188 33.042969 11.984375 32.90625 12L32 12L32 10L32.875 10C33.011719 10.015625 33.148438 10.007813 33.28125 9.96875C33.320313 9.957031 33.367188 9.953125 33.40625 9.9375L49.3125 4.96875C49.855469 4.847656 50.199219 4.308594 50.078125 3.765625C49.957031 3.222656 49.417969 2.878906 48.875 3C48.8125 3.003906 48.75 3.015625 48.6875 3.03125L34 7.625L34 6.90625C34 5.507813 33.085938 4.90625 32.1875 4.40625L25.59375 0.1875C25.394531 0.0859375 25.1875 0.0625 25 0.0625 Z M 20 10L30 10L30 12L20 12 Z M 20.1875 18L27.8125 18L19.21875 22.1875 Z M 31.5 25.34375L32.5 29.65625L15.53125 38.0625L16.78125 32.6875 Z M 34.4375 37.9375L35.40625 42.28125L23.75 48L14.125 48Z" />
</svg>