<?xml version="1.0" encoding="utf-8"?>
<svg xmlns="http://www.w3.org/2000/svg" viewBox="0 0 50 50" width="500" height="500">
  <path d="M34 0.9375C31.449219 0.9375 29.089844 1.824219 27.21875 3.28125L42.71875 18.78125C44.175781 16.910156 45.0625 14.550781 45.0625 12C45.0625 5.90625 40.101563 0.9375 34 0.9375 Z M 25.6875 4.71875C23.980469 6.664063 22.9375 9.214844 22.9375 12C22.9375 18.09375 27.90625 23.0625 34 23.0625C36.785156 23.0625 39.335938 22.019531 41.28125 20.3125 Z M 21.1875 14.5C18.390625 18.726563 13.097656 26.359375 8.6875 30.78125C8.496094 30.945313 8.078125 31.410156 8.03125 32.09375C8.003906 32.480469 8.097656 33.066406 8.6875 33.65625L12.3125 37.28125C12.789063 37.757813 13.304688 38 13.84375 38C14.433594 38 14.894531 37.707031 15.15625 37.40625C19.492188 33.078125 27.261719 27.660156 31.53125 24.8125C26.320313 23.808594 22.199219 19.710938 21.1875 14.5 Z M 22.1875 22.53125C22.488281 22.53125 22.773438 22.648438 23 22.875L23.125 22.96875C23.578125 23.425781 23.582031 24.171875 23.125 24.625L20.40625 27.34375C19.949219 27.800781 19.203125 27.800781 18.75 27.34375L18.65625 27.25C18.199219 26.792969 18.199219 26.050781 18.65625 25.59375L21.34375 22.875C21.570313 22.648438 21.886719 22.53125 22.1875 22.53125 Z M 36.1875 29.09375C34.339844 29.042969 32.378906 29.742188 30.625 31.5L16.90625 45.21875C15.429688 46.695313 13.632813 47.230469 11.84375 46.75C10.09375 46.28125 8.667969 44.898438 8.21875 43.21875C7.765625 41.527344 8.347656 39.75 9.875 38.21875L10.15625 37.96875L8.65625 36.46875L8.40625 36.75C6.320313 38.835938 5.53125 41.332031 6.1875 43.78125C6.828125 46.175781 8.816406 48.121094 11.28125 48.78125C11.878906 48.941406 12.496094 49.03125 13.09375 49.03125C15.003906 49.03125 16.851563 48.242188 18.375 46.71875L32.09375 33C34.75 30.347656 37.816406 30.96875 39.53125 32.6875C41.246094 34.402344 41.785156 37.308594 39.125 39.96875L32.78125 46.3125C32.371094 46.722656 32.371094 47.402344 32.78125 47.8125C33.191406 48.222656 33.871094 48.222656 34.28125 47.8125L40.59375 41.46875C42.230469 39.832031 43.089844 37.910156 43.0625 35.9375C43.039063 34.175781 42.328125 32.484375 41.03125 31.1875C39.777344 29.933594 38.035156 29.144531 36.1875 29.09375Z" />
</svg>