<?xml version="1.0" encoding="utf-8"?>
<svg xmlns="http://www.w3.org/2000/svg" viewBox="0 0 50 50" width="500" height="500">
  <path d="M2.8125 4C2.710938 4.027344 2.617188 4.070313 2.53125 4.125C2.476563 4.152344 2.425781 4.183594 2.375 4.21875C2.34375 4.238281 2.3125 4.257813 2.28125 4.28125C2.253906 4.308594 2.242188 4.347656 2.21875 4.375C2.183594 4.425781 2.152344 4.476563 2.125 4.53125C2.046875 4.675781 2.003906 4.835938 2 5L2 45C2 45.550781 2.449219 46 3 46L47 46C47.550781 46 48 45.550781 48 45L48 5C47.996094 4.9375 47.984375 4.875 47.96875 4.8125C47.953125 4.75 47.933594 4.683594 47.90625 4.625C47.878906 4.5625 47.851563 4.492188 47.8125 4.4375C47.769531 4.367188 47.714844 4.304688 47.65625 4.25C47.617188 4.214844 47.574219 4.183594 47.53125 4.15625C47.390625 4.066406 47.230469 4.011719 47.0625 4C47.042969 4 47.019531 4 47 4L3 4C2.96875 4 2.9375 4 2.90625 4C2.875 4 2.84375 4 2.8125 4 Z M 10 12L40 12L40 18C40 18.550781 40.445313 19 41 19L46 19L46 44L38 44L38 37C38 36.445313 37.554688 36 37 36L33 36C32.445313 36 32 36.445313 32 37L32 40L18 40L18 37C18 36.445313 17.550781 36 17 36L13 36C12.449219 36 12 36.445313 12 37L12 44L4 44L4 19L9 19C9.550781 19 10 18.550781 10 18 Z M 10.8125 20C10.335938 20.089844 9.992188 20.511719 10 21L10 27C10 27.550781 10.449219 28 11 28L22 28C22.128906 27.992188 22.257813 27.960938 22.375 27.90625C22.40625 27.894531 22.441406 27.890625 22.46875 27.875C22.523438 27.839844 22.578125 27.796875 22.625 27.75C22.632813 27.746094 22.648438 27.757813 22.65625 27.75C22.691406 27.722656 22.722656 27.691406 22.75 27.65625C22.757813 27.644531 22.773438 27.636719 22.78125 27.625C22.921875 27.449219 23 27.226563 23 27L23 21C22.992188 20.871094 22.960938 20.742188 22.90625 20.625C22.894531 20.59375 22.890625 20.558594 22.875 20.53125C22.835938 20.441406 22.78125 20.355469 22.71875 20.28125C22.710938 20.273438 22.695313 20.289063 22.6875 20.28125C22.675781 20.269531 22.667969 20.261719 22.65625 20.25C22.644531 20.242188 22.636719 20.226563 22.625 20.21875C22.449219 20.078125 22.226563 20 22 20L11 20C10.96875 20 10.9375 20 10.90625 20C10.875 20 10.84375 20 10.8125 20 Z M 27.8125 20C27.335938 20.089844 26.992188 20.511719 27 21L27 27C27 27.242188 27.089844 27.476563 27.25 27.65625C27.265625 27.671875 27.265625 27.703125 27.28125 27.71875C27.292969 27.71875 27.300781 27.71875 27.3125 27.71875C27.324219 27.726563 27.332031 27.742188 27.34375 27.75C27.507813 27.898438 27.71875 27.984375 27.9375 28C27.957031 28 27.976563 28 28 28L39 28C39.550781 28 40 27.550781 40 27L40 21C40 20.449219 39.550781 20 39 20L28 20C27.96875 20 27.9375 20 27.90625 20C27.875 20 27.84375 20 27.8125 20 Z M 12 22L16 22L16 26L12 26 Z M 34 22L38 22L38 26L34 26 Z M 22 30C21.449219 30 21 30.445313 21 31L21 35C21 35.554688 21.449219 36 22 36L28 36C28.554688 36 29 35.554688 29 35L29 31C29 30.445313 28.554688 30 28 30Z" />
</svg>