<?xml version="1.0" encoding="utf-8"?>
<svg xmlns="http://www.w3.org/2000/svg" viewBox="0 0 50 50" width="500" height="500">
  <path d="M10.5 4C10.066406 4 9.695313 4.273438 9.5625 4.6875L0.0625 34.28125C-0.0546875 34.648438 0.0273438 35.078125 0.3125 35.34375L10.40625 44.71875C10.589844 44.890625 10.839844 45 11.09375 45L22 45C22.449219 45 22.851563 44.683594 22.96875 44.25L24.3125 39.34375C24.40625 39.371094 24.492188 39.40625 24.59375 39.40625L27.03125 39.40625L31.65625 44.65625C31.847656 44.875 32.117188 45 32.40625 45L43.6875 45C44.167969 45 44.597656 44.660156 44.6875 44.1875L49.96875 16.1875C50.011719 15.96875 49.976563 15.730469 49.875 15.53125L44.1875 4.53125C44.015625 4.199219 43.6875 4 43.3125 4L31.90625 4C31.449219 4 31.050781 4.308594 30.9375 4.75L29.8125 9.125L27.46875 9.1875C27.03125 9.203125 26.648438 9.515625 26.53125 9.9375L26.46875 10.125L22.3125 4.40625C22.125 4.148438 21.820313 4 21.5 4 Z M 11.21875 6L20.09375 6L18.71875 10.59375L9.75 10.59375 Z M 32.6875 6L41.96875 6L39.6875 15.59375L35 15.59375C35.046875 15.449219 35.074219 15.3125 35.09375 15.15625L35.59375 11.71875C35.703125 10.734375 35.359375 10.113281 35.0625 9.78125C34.78125 9.46875 34.277344 9.09375 33.40625 9.09375L31.875 9.09375 Z M 30.625 11.09375L33.40625 11.09375C33.542969 11.09375 33.589844 11.125 33.59375 11.125C33.609375 11.152344 33.644531 11.277344 33.625 11.46875L33.09375 14.875C33.050781 15.273438 32.679688 15.5 32.3125 15.5C32.15625 15.5 32.007813 15.53125 31.875 15.59375L27.125 15.59375L28.0625 12.15625C28.089844 12.054688 28.097656 11.945313 28.09375 11.84375L28.28125 11.1875 Z M 9.125 12.59375L20.71875 12.59375L19.71875 16.34375C19.640625 16.644531 19.714844 16.972656 19.90625 17.21875C20.09375 17.464844 20.378906 17.59375 20.6875 17.59375L39.25 17.59375L35.78125 33.6875L27 33.6875L29.96875 22.65625C30.050781 22.355469 29.96875 22.027344 29.78125 21.78125C29.59375 21.535156 29.3125 21.40625 29 21.40625L25.5 21.40625C25.046875 21.40625 24.648438 21.71875 24.53125 22.15625L23.21875 27L19.125 27L20.375 22.5625C20.460938 22.261719 20.375 21.9375 20.1875 21.6875C20 21.4375 19.71875 21.3125 19.40625 21.3125L15.90625 21.3125C15.460938 21.3125 15.0625 21.605469 14.9375 22.03125L13.8125 25.90625C13.742188 26 13.660156 26.101563 13.625 26.21875L13.59375 26.40625L10.15625 26.40625L10.5625 25.1875C10.75 24.53125 10.628906 23.84375 10.25 23.34375C9.890625 22.867188 9.320313 22.59375 8.6875 22.59375L5.90625 22.59375 Z M 5.25 24.59375L8.65625 24.59375L8.28125 25.71875C8.089844 26.167969 8.042969 26.613281 8.15625 27.03125C7.808594 27.316406 7.5625 27.6875 7.4375 28.125L7.0625 29.46875C6.773438 30.195313 6.832031 30.976563 7.21875 31.5625C7.53125 32.035156 8.183594 32.59375 9.59375 32.59375L11.8125 32.59375L11.53125 33.5L2.375 33.59375 Z M 10.09375 28.40625L13 28.40625L12.375 30.59375L9.59375 30.59375C9.015625 30.59375 8.875 30.46875 8.875 30.46875C8.863281 30.441406 8.851563 30.316406 8.90625 30.1875C8.921875 30.148438 8.957031 30.101563 8.96875 30.0625L9.375 28.6875C9.410156 28.558594 9.714844 28.40625 10.09375 28.40625Z" />
</svg>