<?xml version="1.0" encoding="utf-8"?>
<svg xmlns="http://www.w3.org/2000/svg" viewBox="0 0 50 50" width="500" height="500">
  <path d="M25.03125 6C24.761719 5.992188 24.5 6.09375 24.304688 6.28125C24.109375 6.46875 24 6.730469 24 7L24 14.527344C23.984375 14.632813 23.984375 14.742188 24 14.847656L24 23.585938L15 32.585938L10.707031 28.292969C10.515625 28.101563 10.253906 27.996094 9.984375 28C9.722656 28.003906 9.476563 28.109375 9.292969 28.292969L0.292969 37.292969C0.03125 37.542969 -0.0742188 37.917969 0.0195313 38.265625C0.109375 38.617188 0.382813 38.890625 0.734375 38.980469C1.082031 39.074219 1.457031 38.96875 1.707031 38.707031L10 30.414063L13.585938 34L0.292969 47.292969C0.0546875 47.523438 -0.0546875 47.855469 0 48.179688L0 50L50 50L50 48.175781C50.054688 47.851563 49.945313 47.519531 49.707031 47.292969L36.414063 34L40 30.414063L48.292969 38.707031C48.542969 38.96875 48.917969 39.074219 49.265625 38.980469C49.617188 38.890625 49.890625 38.617188 49.980469 38.265625C50.074219 37.917969 49.96875 37.542969 49.707031 37.292969L40.707031 28.292969C40.515625 28.101563 40.253906 27.996094 39.984375 28C39.722656 28.003906 39.476563 28.109375 39.292969 28.292969L35 32.585938L26 23.585938L26 15.363281L34.367188 12.066406C34.742188 11.917969 34.988281 11.5625 35 11.164063C35.011719 10.761719 34.78125 10.394531 34.417969 10.226563L25.417969 6.09375C25.296875 6.035156 25.164063 6.003906 25.03125 6 Z M 25 25.414063L34.152344 34.5625C34.226563 34.679688 34.324219 34.777344 34.4375 34.855469L35.980469 36.390625L33.105469 37.828125L29 34.75L25 37.75L21 34.75L16.894531 37.828125L14.019531 36.390625L15.5625 34.847656C15.679688 34.773438 15.777344 34.675781 15.855469 34.5625Z" />
</svg>