<?xml version="1.0" encoding="utf-8"?>
<svg xmlns="http://www.w3.org/2000/svg" viewBox="0 0 50 50" width="500" height="500">
  <path d="M34.46875 0C31.796875 0.0507813 26.550781 0.460938 23.875 3.75C21.988281 6.070313 21.472656 8.90625 22.65625 10.46875C23.628906 11.753906 24.734375 12.007813 25.53125 12C25.542969 12.03125 25.550781 12.0625 25.5625 12.09375C26.507813 8.261719 28.429688 5.15625 32.1875 3.5625C32.691406 3.347656 33.25 3.585938 33.46875 4.09375C33.683594 4.601563 33.476563 5.191406 32.96875 5.40625C29.5 6.878906 27.886719 10.082031 27.1875 14.09375C27.984375 14.632813 28.945313 14.96875 29.90625 14.96875C30.980469 14.96875 32.027344 14.59375 32.9375 13.875C37.019531 10.648438 37.007813 4.632813 37 1.40625L37 1C37 0.449219 36.554688 0 36 0L35.4375 0C35.175781 0 34.851563 -0.0078125 34.46875 0 Z M 27.1875 14.09375C26.796875 13.828125 26.445313 13.519531 26.15625 13.15625C25.882813 12.8125 25.691406 12.464844 25.5625 12.09375C24.488281 16.441406 24.664063 21.742188 24.84375 26.96875C24.875 27.902344 24.882813 28.839844 24.90625 29.78125C24.050781 28.039063 22.921875 26.515625 21.53125 25.21875C21.386719 25.355469 21.230469 25.484375 21.0625 25.59375C21.167969 26.183594 21.136719 26.820313 20.96875 27.46875C20.972656 27.476563 20.964844 27.492188 20.96875 27.5C23.199219 29.957031 24.460938 33.210938 24.84375 37.28125C25.5 37.144531 26.195313 37.0625 26.875 37.03125C26.886719 36.996094 26.875 36.945313 26.875 36.90625C26.875 34 27.578125 31.992188 29.03125 30.75C29.398438 30.4375 29.839844 30.191406 30.3125 29.96875C30.339844 29.414063 30.46875 28.875 30.6875 28.4375C30.558594 28.25 30.421875 28.054688 30.3125 27.8125C29.332031 28.15625 28.472656 28.601563 27.75 29.21875C27.449219 29.476563 27.191406 29.761719 26.9375 30.0625C26.914063 29 26.878906 27.957031 26.84375 26.90625C26.691406 22.449219 26.523438 17.902344 27.1875 14.09375 Z M 30.3125 27.8125C32.464844 27.0625 35.238281 26.945313 38.71875 27.5C39.265625 27.585938 39.648438 28.109375 39.5625 28.65625C39.476563 29.203125 38.953125 29.5625 38.40625 29.46875C34.898438 28.910156 32.1875 29.09375 30.3125 29.96875C30.289063 30.453125 30.335938 30.964844 30.46875 31.46875C30.960938 33.304688 32.351563 34.53125 34.28125 34.875C34.6875 34.945313 35.097656 35 35.5 35C38.660156 35 40.859375 32.78125 42.3125 31.3125C42.757813 30.863281 43.238281 30.394531 43.5 30.25C43.972656 29.984375 44.125 29.386719 43.875 28.90625C43.105469 27.445313 40.796875 23 34.78125 23C32.121094 23 30.347656 24.03125 30.0625 25.75C29.921875 26.585938 30.066406 27.269531 30.3125 27.8125 Z M 20.96875 27.5C18.113281 24.363281 13.695313 22.484375 7.625 21.78125C7.074219 21.71875 6.6875 21.203125 6.75 20.65625C6.8125 20.109375 7.335938 19.71875 7.875 19.78125C13.855469 20.476563 18.375 22.273438 21.53125 25.21875C22.4375 24.375 22.894531 23.074219 22.6875 21.625C22.320313 19.058594 19.324219 15 12.875 15C12.078125 15 11.253906 15.0625 10.40625 15.1875C7.667969 15.589844 4.335938 16.933594 0.5 19.1875C0.183594 19.375 -0.015625 19.726563 0 20.09375C0.015625 20.460938 0.230469 20.777344 0.5625 20.9375C1.515625 21.398438 2.367188 23.101563 3.25 24.90625C5.007813 28.492188 7.171875 32.96875 12.5 32.96875C12.964844 32.96875 13.445313 32.945313 13.9375 32.875C16.921875 32.445313 19.394531 30.84375 20.53125 28.625C20.726563 28.242188 20.867188 27.886719 20.96875 27.5 Z M 27.5 39C24.53125 39 21.71875 40.1875 19.65625 42.28125C18.609375 41.460938 17.332031 41 16 41C14.371094 41 12.835938 41.667969 11.71875 42.8125C10.917969 42.289063 9.976563 42 9 42C7.429688 42 5.96875 42.753906 5.03125 44L5 44C2.242188 44 0 46.242188 0 49C0 49.554688 0.449219 50 1 50L49 50C49.554688 50 50 49.554688 50 49C50 45.691406 47.308594 43 44 43C43.46875 43 42.925781 43.070313 42.40625 43.21875C41.316406 40.6875 38.828125 39 36 39C34.660156 39 33.371094 39.382813 32.25 40.09375C30.769531 39.382813 29.148438 39 27.5 39Z" />
</svg>