<?xml version="1.0" encoding="utf-8"?>
<svg xmlns="http://www.w3.org/2000/svg" viewBox="0 0 50 50" width="500" height="500">
  <path d="M25 0C15.234375 0 7.261719 7.40625 7.03125 16.59375C7.011719 16.730469 7 16.859375 7 17C6.996094 17.09375 7.007813 17.191406 7.03125 17.28125C7.421875 21.640625 16.464844 24 25 24C33.535156 24 42.578125 21.640625 42.96875 17.28125C42.96875 17.261719 42.96875 17.238281 42.96875 17.21875C42.96875 17.195313 43 17.179688 43 17.15625C43.003906 17.105469 43.003906 17.050781 43 17C43 16.859375 42.988281 16.730469 42.96875 16.59375C42.738281 7.40625 34.765625 0 25 0 Z M 25 2C32.511719 2 38.746094 6.847656 40.5 13.3125C37.152344 11.148438 30.945313 10 25 10C19.054688 10 12.847656 11.148438 9.5 13.3125C11.253906 6.847656 17.488281 2 25 2 Z M 7 21.3125L7 41C7 46.046875 14.90625 50 25 50C35.09375 50 43 46.046875 43 41L43 21.3125C41.902344 22.335938 40.4375 23.164063 38.75 23.8125C38.542969 24.761719 38.4375 25.835938 38.34375 26.875C38.085938 29.753906 37.785156 33 34.5 33C31.113281 33 30.675781 30.160156 30.40625 28.46875C30.328125 27.96875 30.203125 27.15625 30.03125 27C29.335938 27.011719 28.847656 27.160156 28.53125 27.5C27.617188 28.480469 27.761719 31.011719 27.90625 33.25C28.085938 35.980469 28.265625 38.550781 26.90625 40C26.292969 40.65625 25.457031 41 24.40625 41C20.113281 41 20 36.054688 19.90625 32.09375C19.855469 29.816406 19.796875 27 18.8125 27C18.5625 27 18.441406 27.09375 18.03125 27.5C17.429688 28.097656 16.507813 29 14.5 29C11.71875 29 11.210938 26.347656 10.8125 24.21875C10.773438 24.011719 10.757813 23.800781 10.71875 23.59375C9.261719 22.984375 7.976563 22.222656 7 21.3125Z" />
</svg>