<?xml version="1.0" encoding="utf-8"?>
<svg xmlns="http://www.w3.org/2000/svg" viewBox="0 0 50 50" width="500" height="500">
  <path d="M36.46875 3.3125L27.21875 5.75L27.4375 6.71875C27.472656 6.855469 28.304688 10.039063 29.5 12.53125C30.507813 14.628906 32.371094 16.886719 34.5625 16.90625L39.46875 37.65625C38.675781 38.578125 37.300781 40.660156 38.53125 47.15625C37.324219 47.414063 36.011719 47.5625 34.59375 47.5625C34.207031 47.5625 33.832031 47.542969 33.4375 47.5C32.25 45.554688 29.027344 41.105469 23.34375 39.46875C23.253906 38.144531 24.8125 36.3125 24.8125 36.3125C24.8125 36.3125 28.5 38.15625 32.9375 38.15625C34.480469 38.15625 35.828125 38.019531 36.96875 37.84375C37.074219 37.625 37.195313 37.410156 37.3125 37.21875L36.625 34.3125C35.582031 34.558594 34.269531 34.75 32.78125 34.75C31.671875 34.75 30.59375 34.394531 29.59375 33.90625C29.242188 33.964844 28.867188 34 28.5 34C24.914063 34 22 31.085938 22 27.5C22 23.988281 24.796875 21.113281 28.28125 21C29.546875 20.15625 31.070313 19.625 33.0625 19.28125L32.90625 18.625C31.371094 18.136719 30.164063 17.042969 29.28125 15.9375C25.402344 17.058594 19.332031 19.816406 18 26.21875C11.984375 30.261719 10.53125 37.046875 10.21875 39.0625C3.148438 39.539063 0.21875 46.207031 0.09375 46.5C-0.121094 47.007813 0.0859375 47.59375 0.59375 47.8125C1.097656 48.03125 1.6875 47.789063 1.90625 47.28125C2.015625 47.023438 4.691406 41 11 41C14.203125 41 17.863281 42.933594 21.75 45C25.976563 47.242188 30.34375 49.5625 34.59375 49.5625C36.160156 49.5625 37.605469 49.40625 38.9375 49.125L38.9375 49.15625L39.03125 49.125C45.898438 47.648438 49.601563 43.132813 49.78125 42.90625C50.128906 42.476563 50.054688 41.847656 49.625 41.5C49.195313 41.15625 48.566406 41.222656 48.21875 41.65625C48.203125 41.675781 47.683594 42.238281 46.8125 43C46.15625 41.324219 44.621094 38.449219 41.375 37.09375L36.46875 16.21875C38.035156 14.933594 38.039063 12.164063 38.03125 10.53125C38.019531 7.644531 36.832031 4.328125 36.78125 4.1875 Z M 28.5 23C26.015625 23 24 25.015625 24 27.5C24 29.984375 26.015625 32 28.5 32C30.984375 32 33 29.984375 33 27.5C33 25.015625 30.984375 23 28.5 23Z" />
</svg>