<?xml version="1.0" encoding="utf-8"?>
<svg xmlns="http://www.w3.org/2000/svg" viewBox="0 0 50 50" width="500" height="500">
  <path d="M25 2C23.894531 2 23 2.894531 23 4C23 4.714844 23.382813 5.375 24 5.730469L24 7.046875C17.21875 7.496094 15.15625 12.410156 15.070313 12.628906L15 12.808594L15 18L13 18L13 21L11.730469 21C11.375 20.382813 10.714844 20 10 20C8.894531 20 8 20.894531 8 22C8 23.105469 8.894531 24 10 24C10.714844 24 11.371094 23.617188 11.730469 23L13 23L13 26L15 26L15 28.191406L15.070313 28.371094C15.132813 28.523438 16.144531 30.921875 19 32.539063L19 35.800781L5 40.90625L5 48L17 48L17 42L33 42L33 48L45 48L45 40.90625L31 35.800781L31 32.539063C33.855469 30.921875 34.867188 28.523438 34.929688 28.371094L35 28.191406L35 26L37 26L37 23L38.269531 23C38.628906 23.617188 39.285156 24 40 24C41.105469 24 42 23.105469 42 22C42 20.894531 41.105469 20 40 20C39.285156 20 38.625 20.382813 38.269531 21L37 21L37 18L35 18L35 12.808594L34.929688 12.628906C34.84375 12.410156 32.78125 7.496094 26 7.046875L26 5.726563C26.617188 5.371094 27 4.714844 27 4C27 2.894531 26.105469 2 25 2 Z M 19 20L22 20L22 23L19 23 Z M 28 20L31 20L31 23L28 23 Z M 19 44L19 48L31 48L31 44Z" />
</svg>