<?xml version="1.0" encoding="utf-8"?>
<svg xmlns="http://www.w3.org/2000/svg" viewBox="0 0 50 50" width="500" height="500">
  <path d="M25.019531 4C23.619531 4 22.319062 4.6991406 21.539062 5.8691406C19.329062 9.1791406 17.180625 12.599531 15.140625 16.019531C11.280625 22.519531 7.7004688 29.280625 4.4804688 36.140625C3.4804688 38.280625 4.3897656 40.839844 6.5097656 41.839844C10.599766 43.769844 17.080781 46.009766 25.050781 46.009766C25.370781 46.009766 25.699531 46.01 26.019531 46C27.459531 45.97 28.879063 45.859453 30.289062 45.689453C30.409063 45.009453 30.499844 44.330625 30.589844 43.640625C31.219844 38.490625 31.119531 33.290156 30.269531 28.160156C29.359531 22.720156 27.629375 17.429219 25.109375 12.449219C24.859375 11.959219 25.060781 11.359375 25.550781 11.109375C26.040781 10.859375 26.640625 11.060781 26.890625 11.550781C28.500625 14.730781 29.799297 18.029922 30.779297 21.419922C31.119297 21.149922 31.54 21 32 21C33.1 21 34 21.9 34 23C34 24.1 33.1 25 32 25C31.89 25 31.779688 24.990703 31.679688 24.970703C31.889688 25.920703 32.080234 26.879844 32.240234 27.839844C33.090234 32.959844 33.230625 38.150781 32.640625 43.300781C32.560625 44.000781 32.469375 44.690625 32.359375 45.390625C36.189375 44.730625 39.929531 43.549375 43.519531 41.859375C44.549531 41.369375 45.330703 40.509688 45.720703 39.429688C46.110703 38.339688 46.050547 37.170859 45.560547 36.130859C42.310547 29.280859 38.709375 22.519531 34.859375 16.019531C32.839375 12.609531 30.699766 9.200625 28.509766 5.890625C27.729766 4.710625 26.429297 4 25.029297 4L25.019531 4 z M 35 27C35.55 27 36 27.45 36 28C36 28.55 35.55 29 35 29C34.45 29 34 28.55 34 28C34 27.45 34.45 27 35 27 z M 17 30C17.55 30 18 30.45 18 31C18 31.55 17.55 32 17 32C16.45 32 16 31.55 16 31C16 30.45 16.45 30 17 30 z M 15 34C16.1 34 17 34.9 17 36C17 37.1 16.1 38 15 38C13.9 38 13 37.1 13 36C13 34.9 13.9 34 15 34 z M 22 40C22.55 40 23 40.45 23 41C23 41.55 22.55 42 22 42C21.45 42 21 41.55 21 41C21 40.45 21.45 40 22 40 z" />
</svg>