<?xml version="1.0" encoding="utf-8"?>
<svg xmlns="http://www.w3.org/2000/svg" viewBox="0 0 50 50" width="500" height="500">
  <path d="M37.933594 2C37.570313 2.003906 37.226563 2.195313 37.050781 2.53125L36.046875 4.421875C35.84375 4.808594 35.910156 5.28125 36.21875 5.59375L38.523438 7.929688L34.929688 16.398438C32.949219 15.421875 31.164063 15 30 15C28.679688 15 27.410156 16.0625 26.289063 17C25.84375 17.375 25.171875 17.941406 25.003906 18C24.671875 17.988281 23.464844 17.53125 22.582031 17.199219C20.671875 16.472656 19.347656 16 18.410156 16C17.488281 16 16.429688 16.414063 15.355469 17.042969C15.257813 17.015625 15.160156 17 15.058594 17L7 17C6.917969 17 6.835938 17.011719 6.753906 17.03125C6.746094 17.03125 6.742188 17.035156 6.734375 17.035156C6.660156 17.058594 6.589844 17.085938 6.523438 17.125C6.519531 17.125 6.519531 17.121094 6.519531 17.125C6.507813 17.128906 6.5 17.136719 6.492188 17.140625C6.429688 17.179688 6.371094 17.222656 6.320313 17.269531C6.308594 17.28125 6.300781 17.285156 6.292969 17.296875C6.238281 17.347656 6.191406 17.410156 6.148438 17.472656C6.148438 17.476563 6.144531 17.480469 6.140625 17.484375L6.132813 17.503906C6.128906 17.511719 6.125 17.515625 6.125 17.519531L0.125 28.519531C0.109375 28.546875 0.0976563 28.574219 0.0859375 28.601563C0.0820313 28.609375 0.078125 28.617188 0.078125 28.625C0.0273438 28.738281 0.00390625 28.863281 0 28.988281C0 28.992188 0 28.996094 0 29L0 33C0 33.554688 0.449219 34 1 34L49 34C49.554688 34 50 33.554688 50 33L50 29C50 28.996094 50 28.992188 50 28.988281C49.996094 28.863281 49.972656 28.738281 49.921875 28.621094C49.921875 28.613281 49.917969 28.609375 49.917969 28.605469C49.902344 28.574219 49.890625 28.546875 49.875 28.519531L43.875 17.519531C43.875 17.515625 43.871094 17.511719 43.871094 17.511719L43.859375 17.484375C43.855469 17.476563 43.847656 17.472656 43.84375 17.46875C43.800781 17.398438 43.753906 17.339844 43.699219 17.28125C43.640625 17.226563 43.574219 17.179688 43.503906 17.140625C43.496094 17.132813 43.484375 17.128906 43.472656 17.125C43.410156 17.085938 43.339844 17.058594 43.265625 17.035156C43.257813 17.035156 43.246094 17.035156 43.238281 17.03125C43.160156 17.011719 43.082031 17 43 17L36.84375 17L40.371094 8.695313L43.964844 8.828125C44.367188 8.839844 44.734375 8.617188 44.90625 8.253906L45.90625 6.132813C46.023438 5.878906 46.03125 5.589844 45.925781 5.328125C45.824219 5.070313 45.617188 4.871094 45.359375 4.769531L38.289063 2.066406C38.171875 2.019531 38.050781 2 37.933594 2 Z M 38.402344 4.25L43.636719 6.253906L43.375 6.804688L40.105469 6.683594L38.15625 4.710938 Z M 30 17C31.628906 17 37.925781 18.621094 41.933594 26L46.222656 26L47.316406 28L2.683594 28L3.773438 26L8.703125 26C9.308594 25.210938 9.757813 24.65625 9.757813 24.65625C11.984375 22.082031 16.304688 18 18.410156 18C19.050781 18 20.683594 18.617188 21.875 19.066406C23.445313 19.664063 24.367188 20 25 20C25.828125 20 26.597656 19.355469 27.574219 18.535156C28.304688 17.925781 29.40625 17 30 17 Z M 31.25 20.03125C30.695313 20.03125 30.25 20.476563 30.25 21.03125C30.25 21.582031 30.695313 22.03125 31.25 22.03125C31.800781 22.03125 32.25 21.582031 32.25 21.03125C32.25 20.476563 31.800781 20.03125 31.25 20.03125 Z M 18.25 21.03125C17.695313 21.03125 17.25 21.476563 17.25 22.03125C17.25 22.582031 17.695313 23.03125 18.25 23.03125C18.800781 23.03125 19.25 22.582031 19.25 22.03125C19.25 21.476563 18.800781 21.03125 18.25 21.03125 Z M 27.25 22.03125C26.695313 22.03125 26.25 22.476563 26.25 23.03125C26.25 23.582031 26.695313 24.03125 27.25 24.03125C27.800781 24.03125 28.25 23.582031 28.25 23.03125C28.25 22.476563 27.800781 22.03125 27.25 22.03125 Z M 34.25 22.03125C33.695313 22.03125 33.25 22.476563 33.25 23.03125C33.25 23.582031 33.695313 24.03125 34.25 24.03125C34.800781 24.03125 35.25 23.582031 35.25 23.03125C35.25 22.476563 34.800781 22.03125 34.25 22.03125 Z M 2 36L2 45C2 45.554688 2.449219 46 3 46L47 46C47.554688 46 48 45.554688 48 45L48 36Z" />
</svg>