<?xml version="1.0" encoding="utf-8"?>
<svg xmlns="http://www.w3.org/2000/svg" viewBox="0 0 50 50" width="500" height="500">
  <path d="M25 3C24.847656 3 24.703125 3.023438 24.5625 3.09375L0.5625 15.09375C0.0703125 15.339844 -0.152344 15.945313 0.09375 16.4375C0.339844 16.929688 0.941406 17.152344 1.4375 16.90625L25 5.125L48.5625 16.90625C48.707031 16.976563 48.851563 17 49 17C49.367188 17 49.730469 16.789063 49.90625 16.4375C50.152344 15.945313 49.929688 15.339844 49.4375 15.09375L25.4375 3.09375C25.296875 3.023438 25.152344 3 25 3 Z M 14 16.03125C6.503906 16.03125 2.570313 19.027344 2.40625 19.15625C2.167969 19.339844 2.03125 19.605469 2.03125 19.90625L2.03125 41L2 41L2 41.53125C2.203125 41.378906 2.34375 41.265625 2.40625 41.21875C2.777344 40.921875 6.632813 38.03125 14 38.03125C18.875 38.03125 22.222656 39.304688 24.03125 40.25L24.03125 18.21875C22.226563 17.296875 18.878906 16.03125 14 16.03125 Z M 36 16.03125C31.121094 16.03125 27.773438 17.296875 25.96875 18.21875L25.96875 40.25C27.777344 39.304688 31.125 38.03125 36 38.03125C43.59375 38.03125 47.464844 41.117188 47.625 41.25C47.726563 41.328125 47.835938 41.398438 47.96875 41.5L47.96875 19.90625C47.96875 19.605469 47.832031 19.339844 47.59375 19.15625C47.429688 19.027344 43.496094 16.03125 36 16.03125 Z M 14 39.96875C7.152344 39.96875 3.660156 42.722656 3.625 42.75C3.625 42.75 2.632813 43.503906 2 44.03125L2 45C2 45.554688 2.449219 46 3 46L20.46875 46C21.066406 46.753906 22.445313 48 25 48C27.554688 48 28.933594 46.753906 29.53125 46L47 46C47.554688 46 48 45.554688 48 45L48 44.03125C47.46875 43.601563 46.875 43.160156 46.40625 42.8125C46.378906 42.792969 46.367188 42.742188 46.34375 42.71875C45.902344 42.390625 42.414063 39.96875 36 39.96875C29.152344 39.96875 25.660156 42.722656 25.625 42.75C25.605469 42.765625 25.582031 42.769531 25.5625 42.78125C25.515625 42.8125 25.457031 42.851563 25.40625 42.875C25.390625 42.882813 25.390625 42.898438 25.375 42.90625C25.261719 42.953125 25.152344 42.964844 25.03125 42.96875C25.023438 42.96875 25.007813 42.96875 25 42.96875C24.867188 42.96875 24.746094 42.929688 24.625 42.875C24.613281 42.871094 24.574219 42.882813 24.5625 42.875C24.515625 42.855469 24.507813 42.839844 24.46875 42.8125C24.445313 42.796875 24.398438 42.769531 24.375 42.75C24.34375 42.726563 20.847656 39.96875 14 39.96875Z" />
</svg>