<?xml version="1.0" encoding="utf-8"?>
<svg xmlns="http://www.w3.org/2000/svg" viewBox="0 0 50 50" width="500" height="500">
  <path d="M22.5625 0C20.851563 0 20.0625 1.488281 20.0625 2.5L20.0625 21.03125C20.0625 21.582031 19.613281 22.03125 19.0625 22.03125C18.511719 22.03125 18.0625 21.582031 18.0625 21.03125L18.0625 5.5C18.0625 3.660156 16.570313 3 15.5625 3C14.597656 3 13.0625 3.632813 13.0625 5.375L13.0625 25.25C14.214844 24.886719 15.097656 24.84375 15.125 24.84375L26.46875 23.34375C29.242188 22.925781 31.421875 24.929688 31.96875 27.21875C32.570313 29.738281 31.148438 32.203125 28.59375 33.09375L23.71875 34.375C25.257813 35.683594 27.3125 38.078125 27.96875 41.84375C28.0625 42.386719 27.699219 42.90625 27.15625 43C27.097656 43.007813 27.058594 43 27 43C26.523438 43 26.085938 42.671875 26 42.1875C25.214844 37.679688 22.054688 35.496094 21.21875 35L20.96875 35.0625L21.9375 36.875C22.203125 37.359375 22.046875 37.953125 21.5625 38.21875C21.410156 38.300781 21.222656 38.34375 21.0625 38.34375C20.707031 38.34375 20.371094 38.175781 20.1875 37.84375L18.59375 34.90625C18.445313 34.636719 18.441406 34.3125 18.5625 34.03125C18.683594 33.75 18.921875 33.546875 19.21875 33.46875L28.03125 31.1875C29.726563 30.59375 30.339844 28.945313 30.03125 27.65625C29.714844 26.328125 28.441406 25.140625 26.875 25.3125C26.839844 25.316406 26.816406 25.339844 26.78125 25.34375L15.28125 26.8125C14.96875 26.832031 9.859375 27.175781 9.09375 32.6875C8.96875 34.582031 9.46875 36.234375 9.53125 36.4375L12.0625 45.25C13.003906 48.511719 16.558594 50 19.46875 50L32 50C32.285156 50 32.589844 49.996094 32.875 49.96875C33.035156 49.953125 33.183594 49.898438 33.34375 49.875C33.464844 49.855469 33.566406 49.867188 33.6875 49.84375C33.859375 49.8125 34.050781 49.761719 34.21875 49.71875C34.332031 49.691406 34.449219 49.65625 34.5625 49.625C34.695313 49.585938 34.804688 49.546875 34.9375 49.5C35.097656 49.445313 35.277344 49.378906 35.4375 49.3125C35.5 49.289063 35.566406 49.277344 35.625 49.25C38.390625 48.0625 40.636719 45.523438 40.96875 41.9375C41 41.632813 41 41.3125 41 41L41 29C41 28.652344 40.949219 28.164063 40.84375 27.625C40.335938 29.550781 38.585938 31 36.5 31C34.019531 31 32 28.980469 32 26.5L32 18.5C32 18.273438 32.03125 18.058594 32.0625 17.84375L32.0625 6.46875C32.085938 5.261719 31.34375 4 29.59375 4C27.839844 4 27.09375 5.355469 27.09375 6.5L27.09375 21C27.09375 21.550781 26.648438 22 26.09375 22C25.539063 22 25.0625 21.550781 25.0625 21L25.0625 2.5C25.0625 1.488281 24.273438 0 22.5625 0 Z M 36.5 16C35.117188 16 34 17.117188 34 18.5L34 26.5C34 27.882813 35.117188 29 36.5 29C37.882813 29 39 27.882813 39 26.5L39 18.5C39 17.117188 37.882813 16 36.5 16Z" />
</svg>