<?xml version="1.0" encoding="utf-8"?>
<svg xmlns="http://www.w3.org/2000/svg" viewBox="0 0 50 50" width="500" height="500">
  <path d="M32.984375 -0.013671875 A 1.0001 1.0001 0 0 0 32 1L32 7 A 1.0001 1.0001 0 0 0 32.001953 7.0488281C29.993004 7.248756 28.158101 8.0481844 26.675781 9.2617188 A 1.0001 1.0001 0 0 0 26.636719 9.2226562L22.392578 4.9785156 A 1.0001 1.0001 0 0 0 21.675781 4.6757812 A 1.0001 1.0001 0 0 0 20.978516 6.3925781L25.222656 10.636719 A 1.0001 1.0001 0 0 0 25.263672 10.675781C24.049721 12.158259 23.248797 13.992595 23.048828 16.001953 A 1.0001 1.0001 0 0 0 23 16L17 16 A 1.0001 1.0001 0 1 0 17 18L23 18 A 1.0001 1.0001 0 0 0 23.048828 17.998047C23.248756 20.006996 24.048184 21.841899 25.261719 23.324219 A 1.0001 1.0001 0 0 0 25.222656 23.363281L20.978516 27.607422 A 1.0001 1.0001 0 1 0 22.392578 29.021484L26.636719 24.777344 A 1.0001 1.0001 0 0 0 26.675781 24.736328C28.157786 25.949892 29.991393 26.750886 32 26.951172L32 34.464844C32 36.94219 29.837485 39 27.0625 39L23 39L23 38.029297C23 34.704297 20.296656 32 16.972656 32L10 32C10 30.897 9.103 30 8 30C6.897 30 6 30.897 6 32L6 35L1 35 A 1.0001 1.0001 0 1 0 1 37L6 37L6 43L1 43 A 1.0001 1.0001 0 1 0 1 45L6 45L6 48C6 49.103 6.897 50 8 50C9.103 50 10 49.103 10 48L10 39C10 38.447 10.447 38 11 38C11.553 38 12 38.447 12 39L12 48L16.972656 48C20.296656 48 23 45.294703 23 41.970703L23 41L27.0625 41C30.845515 41 34 38.101497 34 34.464844L34 26.951172C36.008198 26.750927 37.842372 25.951429 39.324219 24.738281 A 1.0001 1.0001 0 0 0 39.363281 24.777344L43.607422 29.021484 A 1.0001 1.0001 0 1 0 45.021484 27.607422L40.777344 23.363281 A 1.0001 1.0001 0 0 0 40.736328 23.324219C41.950279 21.841741 42.751203 20.007405 42.951172 17.998047 A 1.0001 1.0001 0 0 0 43 18L49 18 A 1.0001 1.0001 0 1 0 49 16L43 16 A 1.0001 1.0001 0 0 0 42.951172 16.001953C42.751244 13.993004 41.951816 12.158101 40.738281 10.675781 A 1.0001 1.0001 0 0 0 40.777344 10.636719L45.021484 6.3925781 A 1.0001 1.0001 0 0 0 44.294922 4.6757812 A 1.0001 1.0001 0 0 0 43.607422 4.9785156L39.363281 9.2226562 A 1.0001 1.0001 0 0 0 39.324219 9.2636719C37.841741 8.0497207 36.007405 7.2487967 33.998047 7.0488281 A 1.0001 1.0001 0 0 0 34 7L34 1 A 1.0001 1.0001 0 0 0 32.984375 -0.013671875 z M 17 39C17.552 39 18 39.448 18 40C18 40.552 17.552 41 17 41C16.448 41 16 40.552 16 40C16 39.448 16.448 39 17 39 z" />
</svg>