<?xml version="1.0" encoding="utf-8"?>
<svg xmlns="http://www.w3.org/2000/svg" viewBox="0 0 50 50" width="500" height="500">
  <path d="M20 1C16.121094 1 15.152344 3.648438 14.5 5.40625C14.210938 6.183594 13.9375 6.90625 13.5625 7.09375C13.148438 7.300781 12.925781 7.769531 13.03125 8.21875C13.136719 8.667969 13.535156 9 14 9L15 9C15 11.75 17.25 14 20 14C22.75 14 25 11.75 25 9L26 9C26.460938 9 26.859375 8.695313 26.96875 8.25C27.078125 7.804688 26.875 7.339844 26.46875 7.125C26.089844 6.929688 25.820313 6.183594 25.53125 5.40625C24.878906 3.652344 23.886719 1 20 1 Z M 20 5L21.40625 6.40625L20 7.8125L18.59375 6.40625 Z M 17 9L23 9C23 10.667969 21.667969 12 20 12C18.332031 12 17 10.667969 17 9 Z M 14 15C11.792969 15 10 16.792969 10 19L10 23L13 23L13 25L10 25L10 33.625L14 35.625L14 48L26 48L26 35.625L30 33.625L30 25L27 25L27 23L30 23L30 19C30 16.792969 28.207031 15 26 15L22.59375 15L20 17.59375L17.40625 15 Z M 32 15L32 48L39 48L39 47C39 43.097656 36.167969 40.585938 35.28125 39.125L37 37.40625L37 33.9375C40.640625 33.46875 42.78125 30.59375 42.78125 30.59375L41.21875 29.40625C41.21875 29.40625 39.589844 31.453125 37 31.90625L37 25C37 23.347656 35.652344 22 34 22L34 15 Z M 14 28L26 28L26 30L14 30Z" />
</svg>