<?xml version="1.0" encoding="utf-8"?>
<svg xmlns="http://www.w3.org/2000/svg" viewBox="0 0 50 50" width="500" height="500">
  <path d="M27 0C26.445313 0 26 0.449219 26 1C26 1.550781 26.445313 2 27 2C31.90625 2 35.507813 3.164063 37.96875 4.4375C38.449219 3.777344 38.859375 3.246094 39.21875 2.84375C36.511719 1.375 32.527344 0 27 0 Z M 39.21875 2.84375C38.863281 3.238281 38.441406 3.785156 37.96875 4.4375C37.214844 5.46875 36.367188 6.734375 35.46875 8.0625C33.855469 10.449219 32.179688 12.914063 31.125 14.03125C26.578125 18.84375 20.332031 25.542969 15.78125 30.4375C12.527344 33.933594 9.984375 36.703125 9.59375 37.09375C9.273438 37.414063 6.835938 40.082031 4.5 42.78125C-0.433594 48.484375 -0.445313 48.925781 0.3125 49.6875L0.65625 50L1.0625 50C2.65625 50 12.8125 40.503906 12.90625 40.40625C13.304688 40.007813 16.101563 37.433594 19.625 34.15625C24.511719 29.605469 31.183594 23.371094 35.96875 18.84375C37.066406 17.808594 39.503906 16.171875 41.84375 14.59375C44.21875 12.988281 46.460938 11.480469 47.40625 10.53125C48.5625 9.378906 49.445313 7.898438 49.8125 6.46875C50.316406 4.519531 49.859375 2.765625 48.53125 1.4375C47.582031 0.488281 46.367188 0 45.03125 0C42.816406 0 40.714844 1.316406 39.46875 2.5625C39.398438 2.632813 39.296875 2.757813 39.21875 2.84375 Z M 44 4.40625C44.449219 4.414063 44.828125 4.546875 45.125 4.84375C45.917969 5.636719 45.664063 7.210938 44.53125 8.34375C43.394531 9.480469 41.824219 9.765625 41.03125 8.96875C40.445313 8.378906 40.441406 7.351563 40.9375 6.40625C41.773438 7.097656 42.203125 7.609375 42.21875 7.625C42.414063 7.878906 42.699219 8 43 8C43.214844 8 43.445313 7.921875 43.625 7.78125C44.0625 7.441406 44.121094 6.8125 43.78125 6.375C43.71875 6.296875 43.242188 5.726563 42.3125 4.9375C42.863281 4.582031 43.46875 4.398438 44 4.40625 Z M 47.59375 13C47.082031 13.398438 46.5 13.820313 45.84375 14.28125C45.941406 14.8125 46 15.390625 46 16C46 20.253906 42.96875 23.238281 39.75 26.40625C36.4375 29.671875 33 33.0625 33 38C33 47.472656 43.058594 50 49 50C49.554688 50 50 49.554688 50 49C50 48.445313 49.554688 48 49 48C48.429688 48 35 47.886719 35 38C35 33.894531 37.996094 30.957031 41.15625 27.84375C44.527344 24.523438 48 21.09375 48 16C48 14.878906 47.820313 13.871094 47.59375 13Z" />
</svg>