<?xml version="1.0" encoding="utf-8"?>
<svg xmlns="http://www.w3.org/2000/svg" viewBox="0 0 50 50" width="500" height="500">
  <path d="M27 2C24.238281 2 22 4.238281 22 7C22 9.761719 24.238281 12 27 12C29.761719 12 32 9.761719 32 7C32 4.238281 29.761719 2 27 2 Z M 17 12C16.242188 12 15.507813 12.292969 14.953125 12.816406C14.882813 12.863281 14.820313 12.914063 14.761719 12.976563L8.382813 19.855469C8.332031 19.910156 8.289063 19.972656 8.25 20.039063C7.441406 21.027344 7 22.246094 7 23.5C7 26.53125 9.46875 29 12.5 29C13.035156 29 13.558594 28.921875 14.058594 28.773438C14.023438 28.519531 14 28.261719 14 28C14 27.335938 14.113281 26.675781 14.339844 26.03125L17.085938 15.183594C17.308594 14.113281 17.960938 13.210938 18.828125 12.640625C18.320313 12.246094 17.691406 12 17 12 Z M 36.984375 12.285156C36.433594 12.292969 35.992188 12.746094 36 13.296875L36 18.765625L32 20.671875L26.40625 15.578125C26.140625 15.3125 25.800781 15.128906 25.433594 15.046875L25.425781 15.042969L21.527344 14.070313L21.523438 14.074219C21.351563 14.023438 21.175781 14 21 14C20.039063 14 19.214844 14.683594 19.035156 15.628906L16.277344 26.519531L16.28125 26.535156C16.097656 27.003906 16 27.5 16 28C16 29.285156 16.621094 30.488281 17.660156 31.238281L25 37.5L25 45.5C25 46.878906 26.121094 48 27.5 48C28.878906 48 30 46.878906 30 45.5L30 35C30 34.460938 29.78125 33.949219 29.398438 33.574219L29.394531 33.566406L24 28L26 20.839844L30.609375 24.433594C30.980469 24.796875 31.480469 25 32 25C32.328125 25 32.648438 24.917969 32.9375 24.765625L32.941406 24.765625L36 23.210938L36 47C35.996094 47.359375 36.183594 47.695313 36.496094 47.878906C36.808594 48.058594 37.191406 48.058594 37.503906 47.878906C37.816406 47.695313 38.003906 47.359375 38 47L38 22.195313L38.519531 21.929688C39.394531 21.695313 40 20.902344 40 20C40 18.894531 39.105469 18 38 18L38 13.296875C38.003906 13.027344 37.898438 12.769531 37.707031 12.578125C37.515625 12.386719 37.253906 12.28125 36.984375 12.285156 Z M 15.570313 32.03125L13.71875 37.976563L9.554688 43.925781L9.5625 43.933594C9.214844 44.363281 9 44.902344 9 45.5C9 46.882813 10.117188 48 11.5 48C12.410156 48 13.199219 47.507813 13.636719 46.78125L13.640625 46.78125L18.15625 39.980469L19.753906 35.628906Z" />
</svg>