<?xml version="1.0" encoding="utf-8"?>
<svg xmlns="http://www.w3.org/2000/svg" viewBox="0 0 50 50" width="500" height="500">
  <path d="M46.59375 2L38.46875 2.4375L26.9375 3C26.464844 3.023438 26.074219 3.375 26 3.84375L25.90625 4.3125L24.90625 10.1875L22 26.84375C21.945313 27.164063 22.046875 27.492188 22.277344 27.722656C22.507813 27.953125 22.835938 28.054688 23.15625 28L39.8125 25.09375L45.6875 24.09375L46.15625 24C46.625 23.925781 46.976563 23.535156 47 23.0625L47.5625 11.53125L48 3.40625L47.96875 3.4375L48 3.0625C48.019531 2.777344 47.914063 2.496094 47.710938 2.289063C47.503906 2.085938 47.222656 1.980469 46.9375 2L46.5625 2.03125 Z M 7 4C6.75 4 6.511719 4.113281 6.3125 4.3125C5.914063 4.710938 5.914063 5.289063 6.3125 5.6875C6.3125 5.6875 11 10.613281 11 16.8125C11 21.011719 8.886719 23.988281 6.6875 27.1875C4.386719 30.488281 2 33.992188 2 39.09375C2 43.394531 5.613281 48 10.8125 48C18.113281 48 19.011719 42.695313 19.8125 37.59375C20.210938 34.894531 20.699219 32.113281 22 29.8125C21.601563 29.710938 21.207031 29.492188 20.90625 29.09375C20.804688 28.992188 20.601563 28.792969 20.5 28.59375C18.898438 31.292969 18.40625 34.414063 17.90625 37.3125C17.007813 42.8125 16.207031 46 10.90625 46C6.707031 46 4 42.394531 4 39.09375C4 34.59375 6.105469 31.613281 8.40625 28.3125C10.605469 25.011719 13 21.613281 13 16.8125C13 9.8125 7.886719 4.613281 7.6875 4.3125C7.488281 4.113281 7.25 4 7 4 Z M 45.9375 4.0625L45.875 5.53125L37.90625 13.5L45.09375 20.6875L45.03125 22.125L43.90625 22.3125L36.5 14.90625L25.96875 25.4375L24.25 25.75L24.5625 24.03125L35.09375 13.5L27.6875 6.09375L27.875 4.96875L29.3125 4.90625L36.5 12.09375L44.46875 4.125Z" />
</svg>