<?xml version="1.0" encoding="utf-8"?>
<svg xmlns="http://www.w3.org/2000/svg" viewBox="0 0 50 50" width="500" height="500">
  <path d="M39 1C38.746094 1 38.476563 1.085938 38.28125 1.28125L29.28125 10.28125C28.890625 10.671875 28.890625 11.328125 29.28125 11.71875C29.476563 11.914063 29.742188 12 30 12C30.257813 12 30.523438 11.914063 30.71875 11.71875L39.71875 2.71875C40.109375 2.328125 40.109375 1.671875 39.71875 1.28125C39.523438 1.085938 39.253906 1 39 1 Z M 27.96875 4C27.578125 4.007813 27.214844 4.242188 27.0625 4.625L25.0625 9.625C24.859375 10.136719 25.113281 10.730469 25.625 10.9375C25.746094 10.988281 25.875 11 26 11C26.394531 11 26.777344 10.765625 26.9375 10.375L28.9375 5.375C29.140625 4.863281 28.886719 4.269531 28.375 4.0625C28.246094 4.011719 28.097656 3.996094 27.96875 4 Z M 3 15C1.347656 15 0 16.359375 0 18L0.03125 25.90625C0.03125 27.398438 1.070313 28.695313 2.59375 29C2.738281 29.019531 2.890625 29.03125 3.03125 29.03125C3.097656 29.03125 3.152344 29.003906 3.21875 29C3.332031 28.992188 3.453125 28.984375 3.5625 28.96875C3.710938 28.945313 3.828125 28.914063 3.96875 28.875C3.976563 28.871094 3.992188 28.847656 4 28.84375L4 21C4 20.449219 4.449219 20 5 20C5.550781 20 6 20.449219 6 21L6 27.21875C6.21875 27.082031 6.441406 27 6.6875 27C7.476563 27 8.234375 27.089844 9.09375 27.28125L10.28125 27.5625C14.175781 28.46875 17.574219 31.164063 19.625 34.96875C22.007813 39.304688 26.542969 42 31.46875 42C31.65625 42 31.851563 42.007813 32.03125 42C38.132813 41.808594 43.371094 37.269531 44.6875 31.46875C45.214844 31.789063 45.835938 32 46.5 32C48.429688 32 50 30.429688 50 28.5C50 26.570313 48.429688 25 46.5 25C45.835938 25 45.214844 25.210938 44.6875 25.53125C44.160156 23.160156 43.011719 20.960938 41.28125 19.15625C38.703125 16.46875 35.222656 15 31.5 15L27.125 15C26.765625 15 26.429688 15.1875 26.25 15.5L22 23.03125L22 16C22 15.449219 21.550781 15 21 15 Z M 46.5 27C47.328125 27 48 27.671875 48 28.5C48 29.328125 47.328125 30 46.5 30C45.671875 30 45 29.328125 45 28.5C45 27.671875 45.671875 27 46.5 27Z" />
</svg>